<?xml version="1.0" standalone="no"?>
<!DOCTYPE svg PUBLIC "-//W3C//DTD SVG 1.1//EN" "http://www.w3.org/Graphics/SVG/1.1/DTD/svg11.dtd" >
<svg xmlns="http://www.w3.org/2000/svg">
<metadata></metadata>
<defs>
<font id="fs_albertlight" horiz-adv-x="1105" >
<font-face units-per-em="2048" ascent="1577" descent="-471" />
<missing-glyph horiz-adv-x="450" />
<glyph unicode="&#xfb01;" horiz-adv-x="980" d="M43 911v56q0 12 4.5 16t18.5 4h120v29q0 184 74 297q101 155 309 155q137 0 215 -30q24 -10 21 -33l-10 -55q-4 -13 -13 -13q-2 0 -18 4q-92 29 -193 29q-123 0 -186 -82q-68 -90 -68 -270v-31h482q32 0 32 -37v-913q0 -37 -32 -37h-66q-31 0 -31 37v854h-385v-854 q0 -37 -32 -37h-66q-33 0 -33 37v854h-125q-11 0 -14.5 3.5t-3.5 16.5z" />
<glyph unicode="&#xfb02;" horiz-adv-x="1005" d="M43 911v56q0 12 4.5 16t18.5 4h120v29q0 137 15 211t65 135q40 49 108 77.5t156 28.5q106 0 232 -32q67 16 74 16q24 0 24 -33v-1382q0 -37 -33 -37h-65q-31 0 -31 37v1311q-82 22 -192 22q-121 0 -174 -76q-22 -32 -33 -81.5t-13 -87t-2 -101.5v-37h246q14 0 19.5 -4 t5.5 -16v-54q0 -13 -5 -17.5t-18 -4.5h-248v-854q0 -37 -32 -37h-66q-33 0 -33 37v854h-125q-11 0 -14.5 3.5t-3.5 16.5z" />
<glyph horiz-adv-x="0" />
<glyph horiz-adv-x="0" />
<glyph horiz-adv-x="682" />
<glyph unicode="&#xd;" horiz-adv-x="450" />
<glyph unicode=" "  horiz-adv-x="450" />
<glyph unicode="&#x09;" horiz-adv-x="450" />
<glyph unicode="&#xa0;" horiz-adv-x="450" />
<glyph unicode="!" horiz-adv-x="520" d="M184 76q0 47 32.5 73.5t76.5 26.5q42 0 73 -27.5t31 -72.5t-31.5 -74t-72.5 -29t-75 29t-34 74zM221 1370v2q0 35 27 35h88q18 0 25.5 -6.5t7.5 -24.5v-2l-17 -1055q0 -19 -8 -26.5t-25 -7.5h-49q-17 0 -24.5 7.5t-7.5 26.5z" />
<glyph unicode="&#x22;" horiz-adv-x="614" d="M115 1106v287q0 37 30 37h66q33 0 33 -37v-287q0 -37 -33 -37h-66q-30 0 -30 37zM367 1106v287q0 37 32 37h66q33 0 33 -37v-287q0 -37 -33 -37h-66q-32 0 -32 37z" />
<glyph unicode="#" horiz-adv-x="1126" d="M-16 442q0 2 1 7t1 8l6 39q3 19 13 24.5t40 5.5h205l47 320h-219q-29 0 -29 24q0 2 1 6.5t1 6.5l6 41q3 17 10 22.5t27 5.5h225l64 424q6 31 31 31h71q31 0 31 -23v-8l-65 -424h325l66 422q3 20 11 26.5t26 6.5h61q35 0 35 -25q0 -2 -1 -7.5t-1 -8.5l-62 -414h224 q14 0 20 -4.5t6 -17.5q0 -2 -1 -8t-1 -9l-4 -26q-4 -25 -11.5 -33t-23.5 -8h-227l-49 -320h221q17 0 23 -4.5t6 -15.5q0 -2 -1 -8.5t-1 -10.5l-2 -36q-1 -20 -10.5 -26.5t-32.5 -6.5h-224l-59 -381q-3 -21 -14.5 -29t-40.5 -8h-39q-23 0 -32 5t-9 20q0 2 1 7.5t1 8.5l63 377 h-332l-63 -375q-5 -26 -14.5 -34.5t-42.5 -8.5h-41q-21 0 -29 5.5t-8 19.5q0 12 2 20l59 373h-211q-17 0 -23.5 5t-6.5 19zM381 526h330l51 320h-330z" />
<glyph unicode="$" d="M170 1083q0 99 51.5 176t131.5 118t177 50v166q0 33 31 33h33q21 0 28 -7t7 -28v-161q134 -6 254 -56q26 -12 26 -31q0 -8 -2 -14l-20 -57q-6 -19 -25 -19q-6 0 -18 4q-114 47 -215 56v-529l69 -39q67 -38 113 -71.5t87.5 -79t62 -102.5t20.5 -127q0 -158 -98 -253.5 t-254 -121.5v-154q0 -19 -1.5 -26t-10 -12t-27.5 -5h-23q-24 0 -30.5 9t-6.5 34v146h-16q-154 0 -311 53q-27 9 -27 28q0 9 2 15l21 67q6 19 22 19q5 0 21 -4q155 -58 280 -58h8v580l-143 82q-217 123 -217 319zM315 1108q0 -84 44.5 -141t125.5 -101l45 -24v469 q-83 -13 -135 -54q-80 -60 -80 -149zM629 113q95 22 153 82.5t58 160.5q0 166 -199 265l-12 6v-514z" />
<glyph unicode="%" horiz-adv-x="2048" d="M373 1114q0 131 65.5 223.5t190.5 92.5q66 0 114.5 -26.5t75.5 -72t40 -99.5t13 -116q0 -84 -23.5 -151t-81 -112.5t-142.5 -45.5q-64 0 -114 25t-79.5 68.5t-44 97.5t-14.5 116zM477 1108q0 -39 7 -77t23 -75t47 -59.5t73 -22.5t72 25t44.5 66t20.5 79.5t6 77.5 q0 37 -7 75t-22.5 75.5t-45.5 61.5t-70 24q-43 0 -74.5 -25t-46 -65.5t-21 -79.5t-6.5 -80zM498 41q0 14 8 25l942 1351q9 15 22 15q12 0 31 -13l35 -20q16 -10 16 -27q0 -11 -8 -22l-944 -1356q-8 -14 -22 -14q-11 0 -29 12l-39 26q-12 9 -12 23zM1190 289q0 131 65.5 223 t190.5 92q66 0 114.5 -26t76 -71.5t40.5 -99.5t13 -116q0 -49 -8.5 -93t-27.5 -84t-47.5 -69t-70.5 -46t-94 -17q-64 0 -114 25t-79.5 68.5t-44 97.5t-14.5 116zM1294 283q0 -39 7 -77t23 -75t47 -59.5t73 -22.5t72 25t44.5 66t20.5 79.5t6 77.5q0 37 -7 74.5t-22.5 75.5 t-45.5 61.5t-70 23.5q-43 0 -74.5 -25t-46 -65.5t-21 -79t-6.5 -79.5z" />
<glyph unicode="&#x26;" horiz-adv-x="1370" d="M84 367q0 50 12.5 95.5t40.5 87t55 73t74 69t78 60t86 59.5l-68 82q-58 70 -87 130t-29 132q0 112 85 193.5t214 81.5q132 0 216.5 -76t84.5 -197q0 -51 -19.5 -99.5t-57 -92.5t-77.5 -79.5t-96 -76.5l385 -461q72 101 114.5 227t53.5 254q2 17 6 23t16 6h72q22 0 19 -27 q-9 -153 -62.5 -300t-146.5 -265q105 -103 268 -164q18 -6 21.5 -12.5t-1.5 -23.5l-20 -54q-6 -17 -15 -20.5t-34 2.5q-70 16 -154 62t-153 114q-205 -188 -476 -188q-172 0 -288.5 109t-116.5 276zM229 385q0 -124 87 -205.5t206 -81.5q214 0 373 152l-401 483 q-50 -37 -81.5 -62.5t-70 -62.5t-60.5 -69t-37.5 -72.5t-15.5 -81.5zM379 1157q0 -42 28 -98.5t72 -108.5l56 -67q90 67 138 130t48 140q0 75 -47.5 125.5t-124.5 50.5q-72 0 -121 -49.5t-49 -122.5z" />
<glyph unicode="'" horiz-adv-x="614" d="M233 1106v287q0 37 31 37h66q32 0 32 -37v-287q0 -37 -32 -37h-66q-31 0 -31 37z" />
<glyph unicode="(" horiz-adv-x="659" d="M141 612q0 409 310 834q9 12 22 12q10 0 16 -4l31 -18q10 -7 10 -17q0 -11 -8 -22q-122 -192 -174 -344q-74 -216 -74 -467q0 -220 58.5 -401.5t181.5 -358.5q8 -11 8 -23q0 -13 -12 -22l-31 -23q-8 -8 -18 -8q-9 0 -23 21q-297 414 -297 841z" />
<glyph unicode=")" horiz-adv-x="659" d="M129 -205q0 10 8 21q122 192 174 344q76 222 76 467q0 220 -58.5 401t-181.5 358q-8 11 -8 23q0 13 13 23l32 22q16 8 19 8q9 0 22 -20q293 -408 293 -842q0 -412 -307 -833q-10 -13 -23 -13q-10 0 -16 4l-33 21q-10 7 -10 16z" />
<glyph unicode="*" horiz-adv-x="634" d="M55 1196q0 8 2 12l29 90q6 17 20 17q10 0 19 -6l174 -105l-39 207q-2 8 -2 19q0 10 5.5 13t19.5 3h73q27 0 27 -16q0 -13 -2 -19l-39 -207l180 107q8 4 15 4q12 0 20 -25l21 -69q4 -12 4 -19q0 -19 -25 -22l-190 -25l139 -145q8 -8 8 -19q0 -17 -16 -28l-49 -37 q-18 -11 -23 -11q-10 0 -20 21l-89 201l-86 -209q-7 -13 -16 -13q-5 0 -18 9l-66 47q-10 7 -10 14q0 6 16 27l142 145l-201 23q-23 3 -23 16z" />
<glyph unicode="+" horiz-adv-x="1024" d="M92 508v53q0 19 7 25t28 6h330v344q0 27 6.5 34t28.5 7h40q24 0 31.5 -6.5t7.5 -28.5v-350h322q27 0 34 -6.5t7 -28.5v-41q0 -24 -6.5 -31.5t-28.5 -7.5h-328v-342q0 -26 -6 -33.5t-24 -7.5h-54q-18 0 -24 7t-6 28v348h-324q-25 0 -33 6.5t-8 24.5z" />
<glyph unicode="," horiz-adv-x="393" d="M104 -193q0 6 11 17q63 63 63 127q0 25 -30.5 63.5t-30.5 65.5q0 40 27 66t67 26q44 0 72 -36t28 -83q0 -76 -42 -155t-103 -121q-17 -10 -25 -10q-11 0 -20 12l-10 12q-7 7 -7 16z" />
<glyph unicode="-" horiz-adv-x="555" d="M92 508v53q0 19 7 25t28 6h295q27 0 34 -6.5t7 -28.5v-41q0 -24 -6.5 -31.5t-28.5 -7.5h-295q-25 0 -33 6.5t-8 24.5z" />
<glyph unicode="." horiz-adv-x="399" d="M102 76q0 45 31.5 72.5t77.5 27.5q44 0 75 -28.5t31 -71.5q0 -42 -31.5 -72.5t-74.5 -30.5q-44 0 -76.5 30t-32.5 73z" />
<glyph unicode="/" horiz-adv-x="665" d="M88 -2q0 2 4 22l402 1373q5 16 8 22.5t11 10.5t22 4h55q24 0 24 -17q0 -6 -4 -22l-395 -1368q-7 -26 -18.5 -33.5t-36.5 -7.5h-41q-31 0 -31 16z" />
<glyph unicode="0" d="M86 705q0 76 9.5 153.5t30.5 161.5t58 155.5t87.5 129.5t125 91.5t164.5 33.5q77 0 143 -25t113.5 -67t85 -101t61.5 -123t39.5 -136t22 -138t6.5 -131t-6.5 -131.5t-23 -139t-41 -137t-62.5 -124t-86 -102t-114.5 -68t-143.5 -25.5q-90 0 -164 33t-123.5 90.5t-86.5 129 t-57 155t-29 161t-9 154.5zM240 707q0 -71 7 -142.5t28 -158t54.5 -151.5t93 -109t136.5 -44q76 0 135.5 44t93.5 109.5t55.5 151.5t28.5 158t7 142q0 48 -3.5 98t-13 110.5t-24.5 115t-40.5 106.5t-57.5 90t-79 61t-102 23q-56 0 -102.5 -23t-79 -60.5t-57.5 -90 t-39.5 -106.5t-24 -115t-13 -111t-3.5 -98z" />
<glyph unicode="1" d="M207 1143q0 18 20 31l328 217q23 16 66 16h45q36 0 36 -43v-1321q0 -43 -36 -43h-62q-39 0 -39 43v1214l-278 -184q-12 -8 -23 -8q-14 0 -26 18l-27 45q-4 6 -4 15z" />
<glyph unicode="2" d="M143 35v49q0 16 3.5 24t15.5 21q49 54 153.5 161t153.5 161q174 191 258 331t84 267q0 117 -75 187.5t-193 70.5q-143 0 -291 -84q-12 -4 -14 -4q-18 0 -25 20l-18 45q-7 14 -7 21q0 11 19 24q154 101 358 101q167 0 283.5 -97t116.5 -266q0 -151 -78 -294t-283 -367 q-52 -57 -156 -163.5t-120 -123.5h602q24 0 33.5 -7t9.5 -26v-51q0 -19 -9 -27t-32 -8h-756q-20 0 -26.5 7.5t-6.5 27.5z" />
<glyph unicode="3" d="M156 74q0 8 2 12l22 53q10 19 21 19q2 0 14 -4q132 -60 274 -60q141 0 229.5 83t88.5 224q0 144 -94 222.5t-248 78.5h-72q-26 0 -26 25v61q0 23 24 23h55q143 0 226.5 67.5t83.5 202.5q0 118 -75 178t-198 60q-122 0 -245 -68q-9 -6 -17 -6q-7 0 -14 15l-25 53 q-4 8 -4 12q0 12 12 18q147 87 322 87q103 0 192.5 -40t147 -120t57.5 -183q0 -108 -67 -197.5t-170 -121.5q130 -29 209.5 -129t79.5 -231q0 -124 -62 -222t-166 -151t-229 -53q-201 0 -332 67q-16 10 -16 25z" />
<glyph unicode="4" d="M111 379v31q0 40 18 79l393 885q14 33 39 33h76q12 0 20.5 -9t8.5 -20q0 -8 -2 -12l-398 -907h557v334q0 20 7 26t26 6h72q20 0 26.5 -5.5t6.5 -24.5v-764q0 -17 -6 -24t-21 -7h-80q-17 0 -24 7t-7 26v307h-676q-21 0 -28.5 9t-7.5 30z" />
<glyph unicode="5" d="M168 90q0 2 4 14l25 52q9 18 24 18q9 0 21 -6q73 -36 133 -51t133 -15q135 0 226 81t91 231q0 79 -23 138.5t-61 96.5t-95 60t-118 32t-137 9h-104q-56 0 -56 51v573q0 33 31 33h602q21 0 30 -7t9 -28v-49q0 -20 -6.5 -26.5t-28.5 -6.5h-499v-430h75q110 0 204 -25 t169.5 -76t118.5 -138t43 -201q0 -202 -136.5 -320t-348.5 -118q-151 0 -299 77q-27 13 -27 31z" />
<glyph unicode="6" d="M156 594q0 216 56.5 403t170.5 301q62 62 150.5 97t187.5 35q69 0 160 -21q18 -5 18 -23q0 -10 -2 -16l-10 -45q-6 -25 -27 -25q-2 0 -5 1.5t-5 1.5q-65 12 -137 12q-64 0 -124 -24t-102 -68q-141 -141 -174 -492q129 137 314 137q167 0 277 -113.5t110 -301.5 q0 -203 -114 -337t-302 -134q-119 0 -206.5 47.5t-138 133.5t-74 193t-23.5 238zM309 555q0 -103 16.5 -185t50.5 -143.5t90.5 -95t133.5 -33.5q71 0 124.5 33t81.5 86t41 108.5t13 112.5q0 61 -14 115t-42.5 100t-79 72.5t-116.5 26.5q-71 0 -152 -37t-147 -111v-49z" />
<glyph unicode="7" d="M190 1317v57q0 33 33 33h731q20 0 27.5 -7t7.5 -26v-55q0 -23 -16 -55l-557 -1231q-13 -33 -47 -33h-76q-12 0 -19.5 7t-7.5 18q0 6 4 18l572 1245h-615q-21 0 -29 5.5t-8 23.5z" />
<glyph unicode="8" d="M106 371q0 117 88 220.5t238 156.5q-123 53 -194.5 141.5t-71.5 200.5q0 145 114 242.5t279 97.5t272 -91.5t107 -240.5q0 -97 -76 -190t-188 -144q327 -136 327 -373q0 -182 -130 -295.5t-320 -113.5q-196 0 -320.5 102t-124.5 287zM260 377q0 -133 90 -212t207 -79 q75 0 140 31t108 98t43 158q0 110 -74 184q-72 72 -233 141q-281 -110 -281 -321zM319 1100q0 -53 18 -96.5t54.5 -77.5t73 -58t92.5 -53q90 43 158.5 117t68.5 168q0 103 -61.5 165t-171.5 62q-102 0 -167 -64t-65 -163z" />
<glyph unicode="9" d="M123 958q0 132 49.5 239t144.5 170t220 63q96 0 172 -32t126.5 -87t83.5 -133.5t47.5 -167.5t14.5 -193q0 -222 -59.5 -413.5t-178.5 -303.5q-61 -56 -150 -87t-185 -31q-78 0 -152 20q-18 5 -18 23q0 10 2 16l10 45q6 23 22 23h9q60 -13 122 -13q71 0 138.5 26t111.5 71 q137 143 170 487q-129 -137 -315 -137q-166 0 -275.5 113.5t-109.5 301.5zM276 973q0 -61 13.5 -115t42 -100t78.5 -72.5t116 -26.5q71 0 153 37t148 111v49q0 139 -28.5 238.5t-95.5 159t-168 59.5q-58 0 -104 -22.5t-74.5 -57t-47 -81t-26 -90.5t-7.5 -89z" />
<glyph unicode=":" horiz-adv-x="419" d="M113 84q0 47 32 73.5t76 26.5q42 0 74.5 -27.5t32.5 -72.5t-33 -73.5t-74 -28.5t-74.5 28.5t-33.5 73.5zM113 903q0 47 32 76t76 29q42 0 74.5 -30t32.5 -75t-33 -72.5t-74 -27.5t-74.5 27.5t-33.5 72.5z" />
<glyph unicode=";" horiz-adv-x="421" d="M113 -190q0 6 10 16q53 49 53 92q0 18 -26.5 58.5t-26.5 66.5q0 41 27.5 66.5t68.5 25.5q44 0 73.5 -36t29.5 -81q0 -73 -40 -137t-104 -108q-18 -11 -24 -11q-11 0 -21 13l-14 18q-6 6 -6 17zM115 903q0 47 32 76t76 29q42 0 74.5 -30t32.5 -75t-33 -72.5t-74 -27.5 t-74.5 27.5t-33.5 72.5z" />
<glyph unicode="&#x3c;" horiz-adv-x="1024" d="M170 674v31q0 19 23 36l524 355q18 12 28 12q14 0 25 -18l41 -64q4 -4 4 -14q0 -20 -20 -31l-445 -293l445 -291q20 -11 20 -30q0 -11 -4 -15l-41 -63q-11 -19 -25 -19q-9 0 -28 13l-524 354q-23 17 -23 37z" />
<glyph unicode="=" horiz-adv-x="1024" d="M193 358v54q0 19 6.5 24.5t27.5 5.5h561q27 0 34 -6t7 -28v-41q0 -24 -6.5 -31.5t-27.5 -7.5h-562q-25 0 -32.5 6t-7.5 24zM193 727v53q0 19 7 25t27 6h561q27 0 34 -6.5t7 -28.5v-41q0 -24 -6.5 -31.5t-27.5 -7.5h-562q-25 0 -32.5 6.5t-7.5 24.5z" />
<glyph unicode="&#x3e;" horiz-adv-x="1024" d="M170 367q0 19 20 30l445 293l-445 291q-20 11 -20 31q0 10 4 14l41 64q11 18 25 18q10 0 28 -12l525 -355q22 -17 22 -36v-31q0 -20 -22 -37l-525 -354q-20 -13 -28 -13q-14 0 -25 19l-41 63q-4 4 -4 15z" />
<glyph unicode="?" horiz-adv-x="833" d="M117 1346q0 15 14 22q121 62 264 62t244.5 -87t101.5 -227q0 -73 -31 -148t-87 -137l-150 -165q-27 -29 -41 -48t-30.5 -50.5t-23.5 -70.5t-7 -91q0 -22 -4 -29.5t-17 -7.5h-55q-15 0 -20.5 5.5t-8.5 24.5q-6 47 -6 95q0 46 25 103.5t61 96.5l148 160q116 127 116 238 q0 65 -21.5 112.5t-58 72.5t-77 36.5t-86.5 11.5q-95 0 -193 -45q-12 -4 -16 -4q-17 0 -23 18l-14 37q-4 12 -4 15zM227 76q0 47 31.5 73.5t75.5 26.5q42 0 75 -27.5t33 -72.5t-33.5 -74t-74.5 -29t-74 29t-33 74z" />
<glyph unicode="@" horiz-adv-x="1658" d="M113 649q0 161 62 305.5t167.5 249t251 165.5t307.5 61q189 0 336.5 -79t230 -224.5t82.5 -335.5q0 -83 -24.5 -168.5t-68.5 -159.5t-116 -121t-157 -47q-55 0 -101 17.5t-79 62.5t-33 112q-41 -73 -100.5 -109t-125.5 -36q-107 0 -162 80t-55 196q0 101 39.5 199.5 t119.5 168t181 69.5q67 0 120.5 -34.5t70.5 -111.5l24 97q5 20 29 20h41q27 0 27 -16q0 -1 -1 -5t-1 -6l-93 -405q-14 -57 -14 -129q0 -51 30 -78t87 -27q59 0 107 33t76.5 82t48 110.5t27 115t7.5 98.5q0 237 -157 384.5t-402 147.5q-153 0 -272 -61q-173 -87 -264 -250.5 t-91 -362.5q0 -264 162.5 -425.5t425.5 -161.5q79 0 170 23.5t164 62.5q6 4 14 4q13 0 19 -15l14 -34q4 -12 4 -13q0 -8 -16 -18q-183 -98 -387 -98q-210 0 -375 83t-257.5 235t-92.5 349zM659 614q0 -182 123 -182q121 0 195 170l43 203q0 39 -10 75t-41 66.5t-78 30.5 q-50 0 -91.5 -26t-66.5 -66t-42.5 -90.5t-24.5 -95.5t-7 -85z" />
<glyph unicode="A" horiz-adv-x="1196" d="M16 12q-1 4 -1 7q0 8 3 16l523 1351q7 21 26 21h74q17 0 25 -18l510 -1356q3 -10 3 -16q1 -5 -1 -9q-4 -8 -23 -8h-96q-24 0 -32 5t-15 26l-154 428h-539l-159 -430q-7 -20 -14.5 -24.5t-28.5 -4.5h-88q-11 0 -13 12zM358 565h463l-225 635z" />
<glyph unicode="B" horiz-adv-x="1124" d="M158 35v1333q0 23 9.5 31t37.5 8h258q80 0 147.5 -11t126 -36.5t99 -64.5t63.5 -97.5t23 -132.5q0 -118 -67.5 -204.5t-188.5 -110.5v-2q156 -3 259 -98t103 -251q0 -91 -27 -161t-72.5 -114.5t-112.5 -73t-140.5 -39.5t-163.5 -11h-317q-23 0 -30 6t-7 29zM301 111h195 q88 0 155 13.5t120.5 45t81.5 88.5t28 139q0 285 -385 285h-195v-571zM301 793h158q48 0 88 5t84.5 22t75.5 45.5t51 79t20 118.5q0 58 -18.5 100.5t-48.5 67.5t-75.5 40t-90.5 20t-103 5h-141v-503z" />
<glyph unicode="C" horiz-adv-x="1185" d="M104 705q0 142 42 271t120 231t200 162.5t271 60.5q214 0 369 -95q31 -16 16 -45l-26 -49q-14 -26 -39 -10q-139 86 -309 86q-103 0 -194 -43.5t-155 -120.5q-139 -171 -139 -438q0 -93 16 -180.5t53.5 -168.5t92.5 -141.5t138 -96.5t185 -36q79 0 170.5 21.5t161.5 58.5 q29 15 39 -10l19 -43q4 -10 4 -18q1 -5 -1 -9q-4 -10 -24 -20q-179 -90 -387 -90q-125 0 -228.5 38.5t-176 105t-122 158.5t-73 198t-23.5 223z" />
<glyph unicode="D" horiz-adv-x="1337" d="M158 43v1309q0 30 12.5 42.5t44.5 12.5h229q213 0 321 -20t200 -80q129 -84 200.5 -244t71.5 -369q0 -171 -52 -312.5t-151 -234.5q-157 -147 -502 -147h-327q-29 0 -38 9t-9 34zM301 111h182q169 0 269 23.5t170 94.5q161 161 161 467q0 158 -46.5 289.5t-135.5 204.5 q-128 106 -385 106h-215v-1185z" />
<glyph unicode="E" horiz-adv-x="1001" d="M158 37v1335q0 20 7.5 27.5t27.5 7.5h686q19 0 24.5 -7t3.5 -26l-6 -51q-1 -18 -11 -22.5t-36 -4.5h-553v-495h487q19 0 27 -7t8 -24v-49q0 -19 -6.5 -25t-25.5 -6h-490v-579h576q21 0 28.5 -6t7.5 -21v-55q0 -16 -6.5 -22.5t-27.5 -6.5h-684q-23 0 -30 7t-7 30z" />
<glyph unicode="F" horiz-adv-x="983" d="M158 39v1333q0 20 7.5 27.5t27.5 7.5h686q15 0 23 -7q5 -5 6 -16q0 -4 -1 -10l-6 -51q-1 -18 -11 -22.5t-36 -4.5h-553v-495h487q19 0 27 -7t8 -24v-49q0 -19 -6.5 -25t-25.5 -6h-490v-651q0 -26 -6.5 -32.5t-28.5 -6.5h-73q-22 0 -28.5 6.5t-6.5 32.5z" />
<glyph unicode="G" horiz-adv-x="1314" d="M104 705q0 207 78 369.5t234.5 259t369.5 96.5q71 0 159.5 -17t158.5 -45q19 -7 21.5 -15t-3.5 -22l-16 -57q-6 -18 -15 -21t-24 4q-60 24 -141.5 40t-139.5 16q-107 0 -195 -32.5t-149 -89.5t-103 -134t-61.5 -165t-19.5 -185q0 -93 15.5 -179.5t52.5 -167.5 t91.5 -140.5t139 -95.5t188.5 -36q163 0 279 62v540h-236q-22 0 -27 4.5t-5 28.5v51q0 17 5.5 22t24.5 5h347q21 0 26.5 -6.5t5.5 -28.5v-614q0 -37 -6 -49t-35 -29q-69 -40 -172.5 -66t-193.5 -26q-167 0 -294 53.5t-205 151t-116.5 227.5t-38.5 291z" />
<glyph unicode="H" horiz-adv-x="1308" d="M158 37v1333q0 37 32 37h78q33 0 33 -37v-569h709v569q0 37 32 37h78q31 0 31 -37v-1333q0 -37 -31 -37h-78q-32 0 -32 37v653h-709v-653q0 -37 -33 -37h-78q-32 0 -32 37z" />
<glyph unicode="I" horiz-adv-x="714" d="M123 1329v53q0 15 4.5 20t17.5 5h408q18 0 23.5 -5t5.5 -18v-51q0 -11 -0.5 -16t-5 -7.5t-8 -2.5h-15.5h-131v-1205h131q17 0 23 -5t6 -17v-51q0 -18 -4 -23.5t-19 -5.5h-405q-15 0 -20 5t-5 20v57q0 12 4.5 16t20.5 4h131v1205h-138q-15 0 -19.5 3.5t-4.5 18.5z" />
<glyph unicode="J" horiz-adv-x="743" d="M92 27l12 65q3 16 10 18.5t19 -1.5q57 -11 98 -11q58 0 104.5 19t67.5 55q39 69 39 254v881h-227q-23 0 -29 5t-6 23v47q0 14 7.5 19.5t29.5 5.5h332q33 0 33 -35v-897q0 -158 -20.5 -257.5t-86.5 -158.5q-87 -77 -254 -77q-65 0 -112 14q-14 4 -17 10q-1 4 -1 10 q0 5 1 11z" />
<glyph unicode="K" horiz-adv-x="1058" d="M158 37v1333q0 37 32 37h78q33 0 33 -37v-602h2l537 618q18 21 47 21h88q13 0 15.5 -10.5t-5.5 -18.5l-557 -645l600 -694q13 -15 13 -26t-19 -13h-100q-24 0 -36.5 5.5t-29.5 25.5l-553 643h-2v-637q0 -37 -33 -37h-78q-32 0 -32 37z" />
<glyph unicode="L" horiz-adv-x="876" d="M158 37v1333q0 37 32 37h78q33 0 33 -37v-1259h512q20 0 26.5 -5t6.5 -20v-59q0 -16 -5 -21.5t-22 -5.5h-629q-32 0 -32 37z" />
<glyph unicode="M" horiz-adv-x="1667" d="M158 31l43 1341q0 22 5 28.5t19 6.5h68q21 0 29.5 -5t13.5 -18l512 -1179h2l475 1177q6 15 12 20t19 5h80q14 0 19 -6t5 -23l49 -1343v-6q0 -17 -5 -23q-6 -6 -25 -6h-86q-15 0 -21.5 7t-7.5 28l-41 1087h-2l-424 -1104q-8 -18 -27 -18h-67q-19 0 -29 23l-452 1099 l-29 -1095q0 -16 -6 -21.5t-25 -5.5h-78q-15 0 -20.5 7t-5.5 24z" />
<glyph unicode="N" horiz-adv-x="1376" d="M158 37v1333q0 37 32 37h52q29 0 45 -27l800 -1138h5v1128q0 22 6.5 29.5t23.5 7.5h64q18 0 25.5 -7t7.5 -28v-1335q0 -21 -6 -29t-21 -8h-66q-27 0 -53 37l-782 1110h-4v-1110q0 -37 -33 -37h-64q-32 0 -32 37z" />
<glyph unicode="O" horiz-adv-x="1355" d="M117 698q0 164 43.5 302t121 232t185 146t233.5 52q266 0 415 -195.5t149 -521.5q0 -171 -45 -310.5t-124 -231t-185.5 -140.5t-229.5 -49q-263 0 -413 190t-150 526zM270 705q0 -281 110.5 -445t305.5 -164q188 0 306 169t118 442q0 282 -108 444t-306 162 q-126 0 -223.5 -79.5t-150 -217.5t-52.5 -311z" />
<glyph unicode="P" horiz-adv-x="1011" d="M158 37v1333q0 37 32 37h248q109 0 198 -22t161 -70t111.5 -131t39.5 -197q0 -108 -40 -192.5t-109.5 -136.5t-159 -78.5t-193.5 -26.5h-145v-516q0 -37 -33 -37h-78q-32 0 -32 37zM301 664h137q168 0 265.5 79t97.5 244q0 89 -28.5 151.5t-82.5 96t-119.5 47.5 t-152.5 14h-117v-632z" />
<glyph unicode="Q" horiz-adv-x="1343" d="M104 696q0 109 21 212.5t67.5 198.5t113.5 166.5t165.5 114t216.5 42.5q120 0 217 -41t160.5 -109.5t106 -162.5t61 -195t18.5 -211q0 -100 -17.5 -194.5t-54.5 -185t-102.5 -165t-152.5 -121.5q35 -12 68.5 -30.5t74.5 -46t63 -40.5q57 -34 152 -57q31 -8 31 -29 q0 -6 -2 -14l-5.5 -22t-5.5 -27q-4 -18 -14 -22q-4 -2 -9 -2q-7 0 -15 3q-78 15 -132.5 39.5t-117.5 71.5q-9 7 -38.5 28.5t-40 29t-36 22.5t-43 20.5t-43 11t-51.5 5.5q-16 0 -46 -2t-46 -2q-121 0 -218 40t-160.5 107.5t-106 160.5t-61 194t-18.5 212zM258 702 q0 -84 11.5 -164t41 -162t75 -142.5t120 -99t168.5 -38.5q91 0 165 39t121 101.5t79 144t45.5 162.5t13.5 162q0 70 -8 137t-25.5 137t-50 128.5t-76.5 105t-109 72.5t-145 26q-90 0 -164 -39t-121.5 -102t-80 -144.5t-46.5 -162.5t-14 -161z" />
<glyph unicode="R" horiz-adv-x="1085" d="M158 37v1333q0 37 32 37h287q484 0 484 -399q0 -145 -86 -245t-216 -136l334 -590q9 -15 9 -23q0 -14 -21 -14h-92q-36 0 -53 33l-314 571h-221v-567q0 -37 -33 -37h-78q-32 0 -32 37zM301 715h176q147 0 240.5 76.5t93.5 216.5q0 154 -91.5 221t-270.5 67h-148v-581z " />
<glyph unicode="S" horiz-adv-x="995" d="M100 1083q0 82 35 149.5t93.5 109.5t131.5 65t152 23q167 0 301 -56q36 -14 25 -45l-21 -57q-10 -28 -43 -15q-144 58 -254 58q-118 0 -194 -58q-80 -60 -80 -149q0 -83 44 -139.5t126 -102.5l213 -121q53 -30 91.5 -56t76.5 -61t61.5 -72t38 -86t14.5 -105 q0 -125 -65.5 -213.5t-167.5 -129t-227 -40.5q-157 0 -318 53q-34 11 -24 43l20 67q10 28 43 15q158 -58 283 -58q84 0 152.5 24.5t115.5 83.5t47 146q0 88 -52 149.5t-147 115.5l-254 143q-217 123 -217 319z" />
<glyph unicode="T" horiz-adv-x="1087" d="M35 1319v63q0 15 4.5 20t17.5 5h967q18 1 24 -5q5 -4 5 -13v-5l-11 -61q-2 -13 -8 -19t-13 -7t-22 -1h-395v-1259q0 -37 -33 -37h-75q-33 0 -33 37v1259h-402q-16 0 -21 4t-5 19z" />
<glyph unicode="U" horiz-adv-x="1394" d="M158 627v743q0 37 32 37h78q33 0 33 -37v-727q0 -229 43 -336q39 -100 123.5 -152.5t232.5 -52.5q138 0 224.5 53.5t124.5 145.5q47 116 47 344v725q0 37 32 37h76q33 0 33 -37v-762q0 -302 -127 -461q-133 -165 -408 -165q-328 0 -450 190q-94 145 -94 455z" />
<glyph unicode="V" horiz-adv-x="1191" d="M41 1362q-6 14 -6 24q0 21 26 21h86q28 0 39.5 -7t18.5 -30l405 -1159h2l394 1157q9 26 18.5 32.5t34.5 6.5h63q32 0 32 -22q0 -7 -3 -15l-467 -1335q-7 -20 -17.5 -27.5t-29.5 -7.5h-74q-19 0 -27.5 7.5t-17.5 31.5z" />
<glyph unicode="W" horiz-adv-x="1767" d="M38 1394q4 13 23 13h86q29 0 40.5 -7t17.5 -30l311 -1159h2l285 1157q6 25 16.5 32t36.5 7h62q34 0 43 -37l296 -1159h3l319 1157q7 25 17 32t36 7h64q33 0 33 -22q0 -6 -3 -15l-397 -1335q-6 -20 -16 -27.5t-29 -7.5h-74q-20 0 -29.5 7t-15.5 32l-284 1137h-2 l-289 -1141q-7 -35 -47 -35h-72q-20 0 -29 7t-16 32l-385 1323q-5 13 -5 23q1 5 2 9z" />
<glyph unicode="X" horiz-adv-x="1091" d="M41 14q0 10 10 27l424 690l-385 643q-4 6 -4 15q0 18 20 18h95q18 0 26 -5.5t19 -23.5l307 -518l299 518q10 18 18.5 23.5t26.5 5.5h90q21 0 21 -14q0 -9 -7 -19l-380 -626l417 -695q13 -23 13 -33q0 -20 -29 -20h-76q-45 0 -67 37l-336 579l-336 -575q-14 -25 -26.5 -33 t-39.5 -8h-71q-29 0 -29 14z" />
<glyph unicode="Y" horiz-adv-x="1069" d="M33 1389q0 18 30 18h68q26 0 39.5 -7t22.5 -26l360 -712h2l344 706q12 27 21 33t36 6h50q28 0 28 -14q0 -8 -10 -31l-410 -821v-510q0 -19 -5.5 -25t-20.5 -6h-88q-15 0 -21 7t-6 26v506l-434 831q-6 12 -6 19z" />
<glyph unicode="Z" horiz-adv-x="1046" d="M39 23v34q0 22 14 45l758 1194h-657q-27 0 -33 4.5t-6 20.5v61q0 16 4 20.5t22 4.5h815q19 0 26 -5t7 -20v-26q0 -28 -14 -51l-762 -1194h756q18 0 24 -4.5t6 -18.5v-61q0 -16 -5 -21.5t-23 -5.5h-908q-24 0 -24 23z" />
<glyph unicode="[" horiz-adv-x="589" d="M174 -258v1649q0 39 37 39h313q35 0 35 -33v-45q0 -33 -35 -33h-219v-1503h219q35 0 35 -33v-45q0 -33 -35 -33h-317q-33 0 -33 37z" />
<glyph unicode="\" horiz-adv-x="710" d="M96 1423q0 17 31 17h41q25 0 36.5 -7.5t18.5 -33.5l395 -1387q1 -4 3 -11.5t2 -10.5q0 -17 -25 -17h-55q-21 0 -29 7.5t-14 29.5l-400 1391q-4 20 -4 22z" />
<glyph unicode="]" horiz-adv-x="589" d="M31 -217q0 33 37 33h219v1503h-219q-37 0 -37 33v45q0 33 37 33h315q33 0 33 -37v-1649q0 -39 -37 -39h-311q-37 0 -37 33v45z" />
<glyph unicode="^" horiz-adv-x="1095" d="M139 852q0 7 11 25l350 497q22 33 41 33h22q23 0 39 -25l346 -532q8 -16 8 -19q0 -8 -16 -18l-51 -27q-13 -8 -25 -8t-26 21l-291 448l-295 -440q-15 -21 -27 -21q-7 0 -18 7l-51 36q-17 14 -17 23z" />
<glyph unicode="_" horiz-adv-x="1044" d="M10 -201q0 19 7 25t28 6h948q27 0 34 -6.5t7 -28.5v-41q0 -24 -6.5 -31.5t-28.5 -7.5h-948q-25 0 -33 6.5t-8 24.5v53z" />
<glyph unicode="`" horiz-adv-x="634" d="M113 1341q0 11 6 23l35 55q13 19 26 19q14 0 25 -8l301 -185q14 -8 14 -22q0 -7 -6 -19l-18 -28q-9 -15 -25 -15q-4 0 -16 4l-324 152q-18 9 -18 24z" />
<glyph unicode="a" horiz-adv-x="1062" d="M76 477q0 123 34 224t93 168t137.5 103t167.5 36q78 0 154.5 -33t125.5 -96l3 75q0 33 36 33h62q31 0 31 -37v-719q0 -96 8 -112q11 -25 43 -25h14q13 0 18 -4.5t5 -17.5v-52q0 -12 -5.5 -16t-19.5 -4h-78q-57 0 -85.5 41.5t-28.5 105.5v27q-31 -77 -124 -134.5 t-192 -57.5q-81 0 -148 27t-113 74t-77.5 110.5t-46 134.5t-14.5 149zM211 485q0 -186 79 -289.5t195 -103.5q106 0 188 73t115 175v393q-39 81 -113.5 126.5t-158.5 45.5q-135 0 -220 -113.5t-85 -306.5z" />
<glyph unicode="b" horiz-adv-x="1075" d="M137 31v1374q0 19 5 26.5t22 10.5q27 3 45 5.5t22 3.5t6.5 1h6.5q24 0 24 -33v-540q50 54 132.5 91.5t177.5 37.5q85 0 154.5 -27t117 -73.5t79.5 -111.5t47 -139.5t15 -158.5q0 -107 -27.5 -199t-80.5 -163.5t-140 -112.5t-198 -41q-82 0 -158.5 37.5t-124.5 95.5 l-2 -78q0 -21 -8.5 -29t-30.5 -8h-51q-18 0 -25.5 6.5t-7.5 24.5zM268 242q46 -71 118 -114.5t153 -43.5q157 0 237 113.5t80 289.5q0 195 -74.5 305.5t-224.5 110.5q-76 0 -156 -40.5t-133 -100.5v-520z" />
<glyph unicode="c" horiz-adv-x="864" d="M84 498q0 146 55.5 261t165 182t256.5 67q64 0 136 -17.5t120 -44.5q19 -10 19 -22q0 -2 -5 -17l-12 -37q-9 -22 -20 -22q-3 0 -15 4q-117 55 -225 55q-154 0 -247 -110t-93 -295q0 -67 11 -126.5t36 -114.5t63 -94.5t95 -63t129 -23.5q130 0 238 49q26 13 34 -14l11 -37 q2 -6 2 -11q0 -17 -21 -28q-123 -57 -264 -57q-157 0 -264.5 67.5t-156 181.5t-48.5 267z" />
<glyph unicode="d" horiz-adv-x="1077" d="M84 492q0 231 124.5 373.5t321.5 142.5q76 0 155.5 -33.5t123.5 -91.5v522q0 20 5 28t22 9l82 10h3q19 0 19 -33v-1382q0 -17 -7 -27t-18 -10h-59q-22 0 -30.5 8t-8.5 29l-2 86q-54 -65 -138.5 -103t-176.5 -38q-86 0 -156.5 27.5t-118 75t-80 113t-47 139t-14.5 155.5z M219 496q0 -187 81 -299.5t220 -112.5q81 0 163.5 45.5t125.5 110.5v497q-35 71 -110 119.5t-158 48.5q-148 0 -235 -108.5t-87 -300.5z" />
<glyph unicode="e" horiz-adv-x="997" d="M84 496q0 143 54.5 258.5t160.5 184.5t246 69q177 0 279 -119.5t102 -304.5v-39q0 -35 -10.5 -45.5t-47.5 -10.5h-649q0 -83 21 -154t62 -126t108 -86t153 -31q66 0 138 13.5t118 33.5q29 15 35 -14l10 -47q6 -29 -18 -39q-58 -27 -141 -42t-154 -15q-228 0 -347.5 139.5 t-119.5 374.5zM223 582h570q2 14 2 41q0 124 -65.5 204t-188.5 80q-137 0 -220 -94t-98 -231z" />
<glyph unicode="f" horiz-adv-x="698" d="M39 911v56q0 12 4.5 16t17.5 4h121v29q0 112 6 162q14 137 95 213.5t215 76.5q84 0 168 -30q16 -7 20 -14q2 -4 2 -8.5t-2 -10.5l-14 -55q-7 -19 -31 -9q-65 25 -133 25q-109 0 -152 -67.5t-43 -213.5v-98h267q14 0 19 -4t5 -16v-54q0 -13 -5 -17.5t-17 -4.5h-269v-854 q0 -37 -32 -37h-66q-33 0 -33 37v854h-125q-11 0 -14.5 3.5t-3.5 16.5z" />
<glyph unicode="g" horiz-adv-x="1077" d="M86 498q0 104 29 195.5t83.5 162t140 111.5t191.5 41q82 0 157.5 -32t123.5 -93l2 71q0 19 9 26t28 7h61q31 0 31 -37v-905q0 -279 -135 -397q-117 -99 -311 -99q-65 0 -143.5 20.5t-141.5 51.5q-27 13 -18 37l20 53q5 12 16 16.5t23 -1.5q143 -66 244 -66q158 0 231 76 q84 87 84 295v100q-51 -61 -136.5 -96t-170.5 -35q-107 0 -189 40t-131 110t-73.5 157.5t-24.5 190.5zM221 506q0 -59 9 -114t30.5 -108t54 -91.5t84.5 -62.5t117 -24q83 0 168 42t127 106v483q-36 72 -113 120t-161 48q-150 0 -233 -109.5t-83 -289.5z" />
<glyph unicode="h" horiz-adv-x="1071" d="M137 37v1368q0 19 5 26.5t22 10.5q74 10 80 10q24 0 24 -33v-538q69 61 160 94t182 33q172 0 248 -96t76 -273v-602q0 -37 -33 -37h-65q-33 0 -33 37v584q0 136 -48.5 210t-176.5 74q-75 0 -162.5 -38t-147.5 -93v-737q0 -37 -32 -37h-66q-33 0 -33 37z" />
<glyph unicode="i" horiz-adv-x="450" d="M139 1217q0 35 24 57t60 22t61 -22t25 -57t-25 -57.5t-61 -22.5t-60 22.5t-24 57.5zM158 37v913q0 37 32 37h66q33 0 33 -37v-913q0 -37 -33 -37h-66q-32 0 -32 37z" />
<glyph unicode="j" horiz-adv-x="503" d="M-123 -408l8 52q2 18 23 14q52 -8 96 -8q95 0 148 65q36 44 49.5 121t13.5 195v919q0 37 33 37h67q31 0 31 -37v-897q0 -142 -21 -240t-73 -159q-44 -54 -102 -79.5t-154 -25.5q-37 0 -100 13q-19 4 -19 24v6zM199 1217q0 35 24 57t60 22t60 -22t24 -57t-24 -57.5 t-60 -22.5t-60 22.5t-24 57.5z" />
<glyph unicode="k" horiz-adv-x="849" d="M137 37v1368q0 19 5 26.5t22 10.5q74 10 80 10q24 0 24 -33v-827h4l346 375q17 20 37 20h103q25 0 6 -24l-342 -369l387 -551q11 -16 11 -26q0 -17 -29 -17h-76q-38 0 -58 29l-329 477l-60 -62v-407q0 -37 -32 -37h-66q-33 0 -33 37z" />
<glyph unicode="l" horiz-adv-x="407" d="M137 37v1368q0 19 5 26.5t22 10.5q74 10 80 10q24 0 24 -33v-1382q0 -37 -32 -37h-66q-33 0 -33 37z" />
<glyph unicode="m" horiz-adv-x="1665" d="M137 37v913q0 37 33 37h63q33 0 33 -37l2 -69q65 61 148.5 94t169.5 33q85 0 157.5 -30t112.5 -95q69 60 158.5 92.5t179.5 32.5q334 0 334 -369v-602q0 -37 -33 -37h-65q-33 0 -33 37v584q0 139 -51.5 211.5t-184.5 72.5q-64 0 -136.5 -28t-133.5 -72q20 -70 20 -166 v-602q0 -37 -32 -37h-66q-33 0 -33 37v584q0 65 -9.5 112.5t-33 88.5t-68.5 62t-112 21q-73 0 -149.5 -36t-139.5 -95v-737q0 -37 -32 -37h-66q-33 0 -33 37z" />
<glyph unicode="n" horiz-adv-x="1071" d="M137 37v913q0 37 33 37h63q33 0 33 -37l2 -69q69 61 160 94t182 33q172 0 248 -96t76 -273v-602q0 -37 -33 -37h-65q-33 0 -33 37v584q0 66 -9.5 114t-33.5 88.5t-70.5 61t-114.5 20.5q-75 0 -161 -37.5t-146 -93.5v-737q0 -37 -32 -37h-66q-33 0 -33 37z" />
<glyph unicode="o" horiz-adv-x="1069" d="M84 496q0 108 30 200.5t86.5 162t143.5 109.5t195 40q221 0 333.5 -140t112.5 -372q0 -146 -52 -261t-157.5 -184t-249.5 -69q-112 0 -198 39.5t-138.5 109.5t-79 162t-26.5 203zM219 500q0 -64 9 -121.5t31 -113t56 -96t89 -65t124 -24.5t124.5 23.5t92 62.5t60.5 92.5 t34.5 111.5t10.5 122t-9.5 121.5t-33 112t-58 94t-88.5 63.5t-122 24q-71 0 -127 -24.5t-91.5 -64t-59 -93.5t-33 -109.5t-9.5 -115.5z" />
<glyph unicode="p" horiz-adv-x="1075" d="M135 -403v1359q0 18 7.5 24.5t25.5 6.5h51q22 0 31.5 -8t9.5 -29v-80q52 63 138.5 100.5t176.5 37.5q187 0 301.5 -131t114.5 -377q0 -105 -28.5 -197.5t-82.5 -164.5t-139.5 -114t-191.5 -42q-81 0 -158 33t-125 94v-517q0 -32 -39 -32h-59q-33 0 -33 37zM266 252 q36 -71 113.5 -119.5t161.5 -48.5q150 0 232.5 113.5t82.5 302.5q0 201 -82 303t-219 102q-82 0 -164 -43t-125 -108v-502z" />
<glyph unicode="q" horiz-adv-x="1077" d="M84 492q0 104 29 196.5t83.5 164t140 113.5t191.5 42q82 0 157.5 -32t123.5 -93l2 71q0 19 9 26t28 7h61q31 0 31 -37v-1353q0 -21 -4.5 -29t-20.5 -8h-73q-19 0 -26 6.5t-7 25.5v531q-56 -66 -139.5 -103.5t-175.5 -37.5q-86 0 -155.5 27.5t-116.5 75t-78.5 113 t-45.5 139t-14 155.5zM219 496q0 -188 78 -299t217 -111q83 0 167 47t128 113v489q-36 72 -112.5 121t-159.5 49q-84 0 -147.5 -34t-99.5 -93t-53.5 -129.5t-17.5 -152.5z" />
<glyph unicode="r" horiz-adv-x="600" d="M137 37v913q0 37 33 37h63q33 0 33 -37l2 -71q35 52 97 90.5t133 38.5q24 0 59 -7q17 -2 17 -16q0 -3 -1 -6l-10 -68q-3 -19 -20 -16q-40 8 -66 8q-55 0 -112 -37.5t-97 -99.5v-729q0 -37 -32 -37h-66q-33 0 -33 37z" />
<glyph unicode="s" horiz-adv-x="770" d="M70 72l24 63q9 17 23 10q54 -27 118.5 -44t116.5 -17q104 0 166 48t62 132q0 66 -44 108.5t-128 76.5l-123 49q-211 83 -211 247q0 121 94 192t233 71q128 0 248 -56q20 -10 15 -22l-21 -58q-7 -22 -31 -12q-42 21 -102 35t-109 14q-89 0 -140.5 -41t-51.5 -106 q0 -61 33.5 -95.5t109.5 -66.5l146 -61q211 -88 211 -258q0 -131 -99 -215t-264 -84q-70 0 -142 18.5t-118 42.5q-18 9 -18 21q0 4 2 8z" />
<glyph unicode="t" horiz-adv-x="669" d="M35 911v56q0 13 3.5 16.5t14.5 3.5h125v240q0 19 5 26.5t22 10.5l71 10h9q24 0 24 -33v-254h248q13 0 18 -4.5t5 -17.5v-54q0 -12 -5.5 -16t-19.5 -4h-246v-604q0 -123 41 -164q39 -39 121 -39q63 0 127 22q28 10 31 -12l10 -51q1 -3 1 -6q0 -16 -22 -25 q-84 -30 -167 -30q-64 0 -121.5 17.5t-89.5 51.5q-39 40 -50.5 98.5t-11.5 157.5v584h-121q-13 0 -17.5 4t-4.5 16z" />
<glyph unicode="u" horiz-adv-x="1050" d="M137 354v596q0 37 33 37h66q32 0 32 -37v-577q0 -158 60 -226q52 -59 166 -59q70 0 152 40.5t136 94.5v727q0 37 33 37h66q32 0 32 -37v-913q0 -37 -32 -37h-64q-33 0 -33 37l-2 72q-142 -127 -321 -127q-148 0 -232 81q-92 92 -92 291z" />
<glyph unicode="v" horiz-adv-x="886" d="M33 954q-2 5 -2 10q0 7 4 13q7 10 24 10h72q21 0 29.5 -4.5t13.5 -17.5l275 -811h4l268 804q9 29 43 29h61q13 -1 21 -9q5 -6 5 -13q0 -4 -1 -9l-330 -927q-12 -29 -39 -29h-80q-33 0 -43 29z" />
<glyph unicode="w" horiz-adv-x="1374" d="M33 954q-3 8 -3 13q0 20 29 20h72q21 0 30.5 -5t12.5 -17l225 -809h4l228 807q8 24 33 24h65q20 0 25 -20l235 -811h4l217 802q9 29 43 29h62q24 0 24 -19q0 -5 -2 -12l-276 -927q-8 -29 -41 -29h-84q-35 0 -41 29l-211 749l-209 -749q-8 -29 -41 -29h-82q-33 0 -43 29z " />
<glyph unicode="x" horiz-adv-x="899" d="M31 8q0 4 4 12l344 488l-299 455q-6 9 -6 14q0 10 14 10h113q22 0 32 -16l226 -348l233 342q16 22 37 22h94q15 0 15 -10q0 -3 -7 -14l-309 -437l332 -493q10 -17 10 -25t-12 -8h-121q-23 0 -37 20l-252 392l-264 -394q-12 -18 -39 -18h-94q-14 0 -14 8z" />
<glyph unicode="y" horiz-adv-x="952" d="M37 -414l10 66q2 22 23 22h6q60 -6 76 -6q160 0 223 158l63 156l-362 976q-4 9 0 19t16 10h96q26 0 33 -22l289 -820l285 820q8 22 32 22h80q25 0 25 -16q0 -5 -4 -17l-400 -1077q-68 -183 -152.5 -255.5t-236.5 -72.5q-21 0 -82 9q-20 3 -20 22v6z" />
<glyph unicode="z" horiz-adv-x="782" d="M43 29v30q0 26 18 56l508 776h-460q-27 0 -27 24v48q0 24 27 24h581q31 0 31 -26v-33q0 -18 -16 -45l-521 -787h535q24 0 24 -24v-47q0 -25 -20 -25h-651q-13 0 -21 9t-8 20z" />
<glyph unicode="{" horiz-adv-x="632" d="M47 569v25q0 18 6.5 25t24.5 8q29 3 48.5 19t29 45t13.5 61t5 77l6 324q3 136 80.5 212.5t198.5 76.5h119q24 0 24 -15q0 -1 -1 -4.5t-1 -5.5l-10 -43q-5 -24 -29 -24h-117q-41 0 -71.5 -22.5t-45.5 -57.5t-22 -65t-8 -56l-6 -272q-3 -146 -28 -216.5t-87 -74.5v-2 q63 -4 86.5 -70t28.5 -235l6 -261q1 -26 8 -56t22 -64.5t45.5 -57t71.5 -22.5h109q28 0 33 -19l14 -47q0 -1 1 -4t1 -4q0 -18 -37 -18h-106q-125 0 -200.5 75.5t-78.5 212.5l-6 310q-1 55 -4 88t-12.5 64t-28 46t-47.5 19q-23 3 -29 8t-6 20z" />
<glyph unicode="|" horiz-adv-x="387" d="M131 -2v1415q0 20 5.5 28.5t21.5 8.5h65q19 0 26 -6.5t7 -26.5v-1419q0 -37 -33 -37h-59q-33 0 -33 37z" />
<glyph unicode="}" horiz-adv-x="632" d="M31 -260q0 1 1 4.5t1 5.5l10 43q6 25 29 25h116q41 0 71.5 22.5t46 57t22.5 64.5t8 56l6 275q3 146 28 215.5t87 73.5v2q-63 4 -86.5 71t-28.5 236l-6 258q-1 26 -8 56t-22.5 65t-46 57.5t-71.5 22.5h-108q-28 0 -33 18l-14 47q0 1 -1 4t-1 4q0 19 37 19h106 q125 0 200.5 -76t78.5 -213l6 -309q2 -108 20 -159t74 -58q15 -2 23 -7.5t9 -9.5t1 -10v-27q0 -18 -5.5 -24.5t-23.5 -7.5q-55 -6 -75.5 -57.5t-22.5 -145.5l-6 -324q-3 -136 -80.5 -212t-198.5 -76h-119q-24 0 -24 14z" />
<glyph unicode="~" horiz-adv-x="1095" d="M133 580q0 11 27 28q48 32 72 46t68.5 31t82.5 17q73 0 164 -43q3 -1 34.5 -16t45 -20t38 -12t42.5 -7q16 0 41 9.5t41.5 18t46 26t34.5 20.5q21 12 29 12q7 0 23 -16l32 -35q9 -9 9 -18q0 -16 -15 -25q-8 -6 -37 -28.5t-39.5 -30t-36 -23.5t-42 -22t-41.5 -11.5 t-50 -5.5q-70 0 -147 43q-96 53 -158 53q-45 0 -172 -67q-26 -15 -28 -15q-8 0 -17 15l-39 55q-8 11 -8 21z" />
<glyph unicode="&#xa1;" horiz-adv-x="540" d="M195 905q0 45 31.5 74t72.5 29t75 -29t34 -74q0 -47 -32.5 -73.5t-76.5 -26.5q-42 0 -73 27.5t-31 72.5zM223 -393l17 1055q0 19 7.5 26.5t24.5 7.5h50q17 0 24.5 -7.5t7.5 -26.5l17 -1051v-2q0 -35 -27 -35h-88q-18 0 -25.5 6.5t-7.5 24.5v2z" />
<glyph unicode="&#xa2;" d="M184 498q0 198 102.5 334.5t282.5 166.5v170q0 33 31 33h33q21 0 28 -7t7 -28v-159q63 -2 133 -19t117 -43q18 -9 18 -22q0 -5 -4 -17l-12 -37q-9 -22 -21 -22q-2 0 -14 4q-106 52 -217 55v-827q122 3 223 49q12 4 14 4q17 0 21 -18l10 -37q2 -6 2 -17q0 -13 -20 -22 q-110 -54 -250 -57v-136q0 -19 -1.5 -26.5t-10 -12t-27.5 -4.5h-23q-18 0 -26 5.5t-9.5 12.5t-1.5 25v142q-129 17 -216.5 87.5t-128 177t-40.5 245.5zM319 502q0 -73 14 -138.5t42.5 -122.5t78 -97t115.5 -56v809q-116 -31 -183 -135t-67 -260z" />
<glyph unicode="&#xa3;" d="M150 31v37q0 17 6 26.5t28 20.5q146 79 146 301v76h-109q-21 0 -26 5t-5 27v43q0 21 7.5 28t27.5 7h105v98h-109q-20 0 -25.5 5.5t-5.5 27.5v43q0 21 7.5 28t27.5 7h105v180q0 204 94.5 321.5t284.5 117.5q133 0 237 -44q25 -11 25 -30q0 -9 -2 -13l-11 -45 q-6 -22 -24 -22q-10 0 -14 2q-106 41 -209 41q-238 0 -238 -318v-190h340q17 0 23 -7t6 -26v-49q0 -20 -6 -24.5t-27 -4.5h-338v-98h342q17 0 23 -7t6 -26v-49q0 -19 -6 -23.5t-27 -4.5h-338v-121q0 -169 -115 -254v-6h611q21 0 29 -6t8 -21v-55q0 -16 -7 -22.5t-28 -6.5 h-783q-22 0 -29 6t-7 25z" />
<glyph unicode="&#xa4;" d="M171 986.5q1 9.5 13 21.5l29 28q21 22 43 0l94 -94q40 38 94.5 58t108.5 20t108.5 -20t94.5 -58l94 94q22 22 43 0l29 -28q12 -12 13 -21.5t-11 -21.5l-107 -107q39 -67 39 -151q0 -87 -41 -158l105 -105q12 -12 11 -21.5t-13 -21.5l-29 -28q-12 -12 -21.5 -12t-21.5 12 l-94 94q-80 -74 -199 -74t-199 74l-94 -94q-12 -12 -21.5 -12t-21.5 12l-29 28q-12 12 -13 21.5t11 21.5l105 105q-41 65 -41 158q0 87 37 151l-105 107q-12 12 -11 21.5zM358 707q0 -96 49.5 -154.5t145.5 -58.5t145.5 58.5t49.5 154.5t-49.5 154.5t-145.5 58.5 t-145.5 -58.5t-49.5 -154.5z" />
<glyph unicode="&#xa5;" d="M78 1389q0 16 28 16h78q26 0 39.5 -7t22.5 -26l334 -663h2l317 657q12 27 21 33t36 6h58q28 0 28 -14q0 -8 -10 -31l-358 -707h196q17 0 23 -6.5t6 -25.5v-50q0 -20 -6 -25t-27 -5h-229v-97h233q17 0 23 -6.5t6 -25.5v-50q0 -20 -6 -25t-27 -5h-229v-301q0 -19 -5 -25 t-20 -6h-90q-15 0 -20.5 7t-5.5 26v299h-217q-20 0 -25.5 6.5t-5.5 28.5v43q0 21 7.5 27.5t27.5 6.5h213v97h-217q-20 0 -25.5 6t-5.5 28v43q0 21 7.5 28t27.5 7h174l-373 715q-6 12 -6 21z" />
<glyph unicode="&#xa6;" horiz-adv-x="387" d="M131 -2v469q0 20 5.5 28.5t21.5 8.5h65q19 0 26 -6.5t7 -26.5v-473q0 -37 -33 -37h-59q-33 0 -33 37zM131 944v469q0 20 5.5 28.5t21.5 8.5h65q19 0 26 -6.5t7 -26.5v-473q0 -37 -33 -37h-59q-33 0 -33 37z" />
<glyph unicode="&#xa7;" horiz-adv-x="950" d="M164 51q0 6 2 10l20 62q5 12 15 12q6 0 10 -2q49 -20 118.5 -35.5t119.5 -15.5q100 0 164.5 49t64.5 131q0 64 -44.5 107.5t-127.5 79.5l-125 53q-211 89 -211 250q0 71 35.5 126.5t97.5 88.5q-121 80 -121 202q0 121 96.5 191t237.5 70q118 0 240 -46q16 -6 16 -16 q0 -1 -1 -3t-1 -3l-18 -55q-6 -17 -17 -17q-2 0 -14 4q-112 39 -203 39q-89 0 -145 -42t-56 -105q0 -57 36 -95t110 -71l143 -64q211 -94 211 -260q0 -144 -110 -225q98 -81 98 -192q0 -130 -98.5 -213.5t-262.5 -83.5q-63 0 -137.5 14.5t-124.5 36.5q-18 6 -18 18zM307 768 q0 -57 34.5 -93t109.5 -71l143 -65l10 -4q86 50 86 145q0 64 -44 107t-128 79l-92 39q-55 -17 -87 -54t-32 -83z" />
<glyph unicode="&#xa8;" horiz-adv-x="634" d="M45 1337q0 42 29.5 67.5t68.5 25.5q38 0 66.5 -26t28.5 -67q0 -40 -29 -65t-66 -25t-67.5 25t-30.5 65zM397 1337q0 42 30 67.5t69 25.5q38 0 66 -26t28 -67q0 -40 -29 -65t-65 -25q-37 0 -68 25t-31 65z" />
<glyph unicode="&#xa9;" horiz-adv-x="1701" d="M115 709q0 150 57.5 285t156 232.5t235 154.5t288.5 57t288.5 -57t234 -154t155 -232.5t57.5 -285.5t-57.5 -285.5t-155 -234t-234 -156.5t-288.5 -58q-151 0 -287.5 58t-235 156.5t-156.5 234t-58 285.5zM219 707q0 -128 50 -244.5t134.5 -201t201.5 -134t247 -49.5 t247 49.5t201 134t133.5 201t49.5 244.5q0 171 -83.5 315.5t-229 228.5t-318.5 84t-319 -84t-230 -228.5t-84 -315.5zM506 705q0 116 42.5 215.5t131.5 165t209 65.5q127 0 225 -59q14 -8 14 -23q0 -4 -4 -16l-14 -29q-5 -12 -20 -12q-11 0 -15 4q-82 51 -178 51 q-121 0 -201 -96q-82 -104 -82 -258q0 -70 16 -133.5t48.5 -117t88.5 -85t128 -31.5q103 0 192 47q9 6 17 6q12 0 18 -16l11 -27q4 -12 4 -14t-0.5 -4.5t-2 -4.5t-2.5 -3t-3.5 -3t-3.5 -2.5t-4.5 -3t-4.5 -2.5q-111 -57 -233 -57q-94 0 -168 36t-118.5 98.5t-67.5 140.5 t-23 168z" />
<glyph unicode="&#xaa;" horiz-adv-x="628" d="M78 977q0 51 23 90.5t58.5 62.5t84.5 37.5t95 19.5t97 5q0 21 -4 53q-6 56 -32.5 81.5t-90.5 25.5q-70 0 -155 -45q-15 -9 -21 -9q-7 0 -16 19l-11 20q-4 12 -4 15t1 5t4 4.5t5 4t7.5 4.5t7.5 4q41 25 94.5 40.5t93.5 15.5q109 0 165.5 -58t56.5 -166v-356 q0 -15 -4.5 -20t-18.5 -5h-43q-21 0 -24 2.5t-5 20.5l-6 43q-103 -80 -184 -80q-79 0 -126.5 44t-47.5 122zM186 985q0 -92 99 -92q37 0 77.5 20.5t71.5 51.5v159q-100 0 -155 -18q-93 -30 -93 -121z" />
<glyph unicode="&#xab;" horiz-adv-x="944" d="M113 465q0 17 10 29l227 301q11 14 23 14q8 0 14 -4l41 -23q10 -3 10 -18q0 -4 -4 -12l-174 -285l172 -295q4 -8 4 -14q0 -13 -14 -21l-35 -20q-9 -6 -14 -6q-11 0 -23 18l-229 311q-8 10 -8 25zM461 465q0 14 12 29l227 301q11 14 23 14q8 0 14 -4l41 -23q8 -4 8 -16 q0 -8 -4 -14l-174 -285l172 -295q4 -6 4 -16q0 -12 -12 -19l-35 -20q-9 -6 -14 -6q-11 0 -23 18l-229 311q-10 12 -10 25z" />
<glyph unicode="&#xac;" horiz-adv-x="1044" d="M113 760v53q0 19 7 25t27 6h742q27 0 34 -6.5t7 -28.5v-340q0 -27 -6.5 -34t-28.5 -7h-41q-24 0 -31.5 6.5t-7.5 28.5v266h-661q-25 0 -33 6.5t-8 24.5z" />
<glyph unicode="&#xad;" horiz-adv-x="555" d="M92 508v53q0 19 7 25t28 6h295q27 0 34 -6.5t7 -28.5v-41q0 -24 -6.5 -31.5t-28.5 -7.5h-295q-25 0 -33 6.5t-8 24.5z" />
<glyph unicode="&#xae;" horiz-adv-x="1701" d="M115 709q0 150 57.5 285t156 232.5t235 154.5t288.5 57t288.5 -57t234 -154t155 -232.5t57.5 -285.5t-57.5 -285.5t-155 -234t-234 -156.5t-288.5 -58q-151 0 -287.5 58t-235 156.5t-156.5 234t-58 285.5zM219 707q0 -128 50 -244.5t134.5 -201t201.5 -134t247 -49.5 t247 49.5t201 134t133.5 201t49.5 244.5q0 171 -83.5 315.5t-229 228.5t-318.5 84t-319 -84t-230 -228.5t-84 -315.5zM627 307v793q0 30 26 30h170q297 0 297 -245q0 -86 -50 -146.5t-126 -85.5l219 -342q6 -12 6 -18q0 -17 -22 -17h-62q-24 0 -38 25l-211 334h-109v-328 q0 -31 -27 -31h-47q-26 0 -26 31zM727 719h96q85 0 138 43.5t53 122.5q0 87 -51.5 124.5t-155.5 37.5h-80v-328z" />
<glyph unicode="&#xaf;" horiz-adv-x="634" d="M55 1354v35q0 23 10 32t44 9h409q38 0 49 -8t11 -33v-35q0 -26 -11.5 -34.5t-48.5 -8.5h-409q-32 0 -43 9t-11 34z" />
<glyph unicode="&#xb0;" horiz-adv-x="585" d="M102 1239q0 78 56.5 134.5t134.5 56.5t134 -56.5t56 -134.5t-56 -134t-134 -56t-134.5 56t-56.5 134zM201 1239q0 -37 27.5 -63.5t64.5 -26.5t63.5 26.5t26.5 63.5t-26.5 63.5t-63.5 26.5t-64.5 -26.5t-27.5 -63.5z" />
<glyph unicode="&#xb1;" horiz-adv-x="1024" d="M92 686v53q0 19 7 25t28 6h330v297q0 27 6.5 34t28.5 7h40q24 0 31.5 -6.5t7.5 -28.5v-303h322q27 0 34 -6.5t7 -28.5v-41q0 -24 -6.5 -31.5t-28.5 -7.5h-328v-295q0 -26 -6 -33.5t-24 -7.5h-54q-18 0 -24 7t-6 28v301h-324q-25 0 -33 6.5t-8 24.5zM154 70v53q0 19 7 25 t27 6h643q27 0 34 -6.5t7 -28.5v-41q0 -24 -6.5 -31.5t-27.5 -7.5h-643q-25 0 -33 6.5t-8 24.5z" />
<glyph unicode="&#xb2;" horiz-adv-x="675" d="M145 721v33q0 17 13 30q19 21 70 73t87.5 92.5t77.5 92.5t63.5 101t22.5 92q0 52 -32.5 83.5t-86.5 31.5q-68 0 -139 -41q-6 -4 -16 -4q-12 0 -19 14l-16 35q-4 8 -4 12q0 8 18 20q85 54 187 54q89 0 152 -51.5t63 -143.5q0 -79 -41 -154t-144 -188q-46 -51 -114 -119 h274q19 0 24 -3.5t5 -18.5v-43q0 -23 -27 -23h-395q-13 0 -18 5.5t-5 19.5z" />
<glyph unicode="&#xb3;" horiz-adv-x="675" d="M135 748q0 8 2 12l15 39q3 10 16 10q2 0 14 -4q66 -29 131 -29t105.5 37.5t40.5 101.5q0 65 -43 101.5t-115 36.5h-35q-28 0 -28 26v31q0 25 26 25h29q66 0 102.5 30t36.5 90q0 53 -32 79t-89 26q-52 0 -116 -33q-6 -4 -15 -4q-12 0 -18 12l-17 35q-2 4 -2 8q0 12 15 21 q74 45 168 45q85 0 149 -49.5t64 -134.5q0 -48 -26.5 -91.5t-68.5 -68.5q54 -23 86.5 -71.5t32.5 -108.5q0 -101 -70 -164.5t-171 -63.5q-26 0 -79 8t-83 23q-25 13 -25 25z" />
<glyph unicode="&#xb4;" horiz-adv-x="634" d="M115 1214q0 15 14 23l301 184q12 9 25 9t26 -19l35 -55q6 -12 6 -23q0 -15 -18 -24l-324 -152q-12 -4 -16 -4q-17 0 -25 14l-18 29q-6 12 -6 18z" />
<glyph unicode="&#xb6;" horiz-adv-x="1044" d="M104 1090q0 131 91.5 224t224.5 93h414q19 0 25.5 -6.5t6.5 -26.5v-1626q0 -37 -32 -37h-60q-33 0 -33 37v1561h-184v-1561q0 -37 -33 -37h-57q-33 0 -33 37v1022q-141 1 -235.5 93.5t-94.5 226.5z" />
<glyph unicode="&#xb7;" horiz-adv-x="419" d="M113 590q0 47 32 74.5t76 27.5q42 0 74.5 -28.5t32.5 -73.5t-33 -73t-74 -28t-74.5 28t-33.5 73z" />
<glyph unicode="&#xb8;" horiz-adv-x="634" d="M170 -356q0 6 2 10l8 24q6 17 17 17q2 0 18 -4q58 -21 109 -21q35 0 62 18.5t30 53.5v8q0 74 -109 74h-33q-29 0 -40 11.5t-11 35.5q0 19 2 29l11 100h88l-7 -102h17q46 0 84 -12t66 -46.5t28 -87.5q0 -67 -47 -112.5t-141 -45.5q-58 0 -125 25q-29 12 -29 25z" />
<glyph unicode="&#xb9;" horiz-adv-x="675" d="M125 1303q0 12 16 20l168 111q17 10 41 10h29q17 0 22 -6.5t5 -22.5v-674q0 -11 -1 -15.5t-6.5 -8.5t-17.5 -4h-47q-16 0 -20.5 6.5t-4.5 21.5v586l-121 -76q-11 -8 -18 -8t-12 8l-27 37q-6 9 -6 15z" />
<glyph unicode="&#xba;" horiz-adv-x="684" d="M72 1116q0 134 73 224t201 90q133 0 199.5 -87.5t66.5 -226.5q0 -133 -72.5 -222t-201.5 -89q-133 0 -199.5 86.5t-66.5 224.5zM164 1118q0 -66 14.5 -118t55 -90t104.5 -38q48 0 84.5 20.5t57 55.5t30.5 77t10 89q0 46 -9.5 87.5t-29 78t-55 58.5t-82.5 22 q-49 0 -85.5 -21.5t-56 -58t-29 -77t-9.5 -85.5z" />
<glyph unicode="&#xbb;" horiz-adv-x="944" d="M158 158q0 4 4 12l174 287l-172 293q-4 8 -4 14q0 12 14 20l35 21q9 6 14 6q9 0 21 -18l229 -312q10 -13 10 -24q0 -17 -10 -29l-229 -301q-11 -14 -21 -14q-8 0 -14 4l-41 22q-10 3 -10 19zM506 158q0 4 4 12l176 287l-172 293q-4 6 -4 16q0 11 12 18l35 21q9 6 14 6 q11 0 23 -18l229 -312q8 -10 8 -24q0 -17 -10 -29l-227 -301q-11 -14 -23 -14q-8 0 -14 4l-41 22q-10 3 -10 19z" />
<glyph unicode="&#xbc;" horiz-adv-x="1536" d="M117 1303q0 12 16 20l168 111q17 10 41 10h29q17 0 21.5 -6.5t4.5 -22.5v-674q0 -12 -0.5 -16t-6 -8t-17.5 -4h-47q-16 0 -20.5 6.5t-4.5 21.5v586l-121 -76q-11 -8 -18 -8t-12 8l-27 37q-6 9 -6 15zM225 -35q0 10 6 19l879 1443q14 24 26.5 32.5t39.5 8.5h49 q26 0 26 -18q0 -15 -12 -33l-877 -1442q-11 -20 -19 -26t-28 -6h-67q-9 0 -16 6.5t-7 15.5zM940 182v19q0 24 10 49l197 442q1 4 4.5 9.5t11.5 11.5t17 6h43q28 0 28 -17q0 -8 -6 -20l-192 -438h243v153q0 18 4 24.5t17 6.5h53q14 0 18.5 -5t4.5 -22v-391q0 -15 -3 -19.5 t-16 -4.5h-57q-13 0 -17 4.5t-4 19.5v146h-331q-16 0 -20.5 5t-4.5 21z" />
<glyph unicode="&#xbd;" horiz-adv-x="1536" d="M90 1303q0 12 16 20l168 111q17 10 41 10h29q17 0 22 -6.5t5 -22.5v-674q0 -11 -1 -15.5t-6.5 -8.5t-17.5 -4h-47q-16 0 -20.5 6.5t-4.5 21.5v586l-120 -76q-11 -8 -19 -8q-7 0 -12 8l-27 37q-6 9 -6 15zM199 -35q0 10 6 19l878 1443q14 24 26.5 32.5t39.5 8.5h49 q27 0 27 -18q0 -14 -13 -33l-876 -1442q-11 -20 -19 -26t-28 -6h-68q-9 0 -15.5 6.5t-6.5 15.5zM940 10v33q0 17 14 31q19 21 70 73t87.5 92t77.5 92t63 101t22 92q0 52 -32.5 83.5t-86.5 31.5q-68 0 -139 -41q-6 -4 -17 -4t-18 14l-16 35q-2 4 -2 12q0 10 16 21 q83 53 186 53q89 0 152 -51t63 -143q0 -79 -40.5 -154t-143.5 -188q-37 -41 -115 -119h275q19 0 23.5 -4t4.5 -19v-43q0 -22 -26 -22h-395q-13 0 -18 5t-5 19z" />
<glyph unicode="&#xbe;" horiz-adv-x="1536" d="M117 748q0 8 2 12l14 39q3 10 17 10q2 0 14 -4q66 -29 131 -29t105 37.5t40 101.5q0 65 -42.5 101.5t-114.5 36.5h-35q-29 0 -29 26v31q0 25 27 25h28q66 0 103 30t37 90q0 53 -32 79t-89 26q-53 0 -117 -33q-6 -4 -14 -4q-13 0 -19 12l-16 35q-2 4 -2 8q0 13 14 21 q74 45 168 45q85 0 149 -49.5t64 -134.5q0 -49 -26 -92t-68 -68q54 -23 86.5 -71.5t32.5 -108.5q0 -100 -70.5 -164t-171.5 -64q-26 0 -79 8t-83 23q-24 12 -24 25zM244 -35q0 10 6 19l878 1443q14 24 26.5 32.5t39.5 8.5h49q27 0 27 -18q0 -14 -13 -33l-876 -1442 q-11 -20 -19 -26t-28 -6h-68q-9 0 -15.5 6.5t-6.5 15.5zM958 182v19q0 21 11 49l196 442q1 4 4.5 9.5t11.5 11.5t17 6h43q29 0 29 -17q0 -8 -6 -20l-193 -438h244v153q0 18 3.5 24.5t16.5 6.5h54q14 0 18 -5t4 -22v-391q0 -15 -2.5 -19.5t-15.5 -4.5h-58q-13 0 -16.5 4.5 t-3.5 19.5v146h-332q-16 0 -20.5 5t-4.5 21z" />
<glyph unicode="&#xbf;" horiz-adv-x="833" d="M117 -135q0 73 31.5 148t87.5 137l149 165q27 29 41 48t30.5 50.5t23.5 70.5t7 91q0 22 4 29.5t17 7.5h55q15 0 20.5 -5.5t8.5 -24.5q6 -46 6 -95q0 -46 -25 -103.5t-61 -96.5l-147 -160q-117 -128 -117 -238q0 -65 21.5 -112.5t58.5 -72.5t77.5 -36.5t86.5 -11.5 q94 0 192 45q12 4 16 4q17 0 23 -18l14 -37q4 -12 4 -15q0 -15 -14 -22q-121 -62 -264 -62t-244.5 87t-101.5 227zM416 905q0 45 33.5 74t74.5 29t74 -29t33 -74q0 -47 -31.5 -73.5t-75.5 -26.5q-42 0 -75 27.5t-33 72.5z" />
<glyph unicode="&#xc0;" horiz-adv-x="1196" d="M15.5 11.5q-2.5 11.5 2.5 23.5l523 1351q7 21 26 21h74q17 0 25 -18l510 -1356q6 -17 1.5 -25t-22.5 -8h-96q-24 0 -32 5t-15 26l-154 428h-539l-159 -430q-7 -20 -14.5 -24.5t-28.5 -4.5h-88q-11 0 -13.5 11.5zM358 565h463l-225 635zM393 1716q0 11 6 23l35 55 q12 18 27 18q13 0 24 -8l301 -184q15 -9 15 -23q0 -6 -6 -18l-19 -29q-8 -14 -24 -14q-5 0 -17 4l-323 152q-19 10 -19 24z" />
<glyph unicode="&#xc1;" horiz-adv-x="1196" d="M15.5 11.5q-2.5 11.5 2.5 23.5l523 1351q7 21 26 21h74q17 0 25 -18l510 -1356q6 -17 1.5 -25t-22.5 -8h-96q-24 0 -32 5t-15 26l-154 428h-539l-159 -430q-7 -20 -14.5 -24.5t-28.5 -4.5h-88q-11 0 -13.5 11.5zM358 565h463l-225 635zM393 1602q0 13 15 22l301 184 q12 9 24 9q14 0 27 -19l35 -55q6 -12 6 -23q0 -14 -19 -24l-323 -152q-12 -4 -17 -4q-16 0 -24 14l-19 29q-6 12 -6 19z" />
<glyph unicode="&#xc2;" horiz-adv-x="1196" d="M15.5 11.5q-2.5 11.5 2.5 23.5l523 1351q7 21 26 21h74q17 0 25 -18l510 -1356q6 -17 1.5 -25t-22.5 -8h-96q-24 0 -32 5t-15 26l-154 428h-539l-159 -430q-7 -20 -14.5 -24.5t-28.5 -4.5h-88q-11 0 -13.5 11.5zM303 1587q0 9 12 21l242 219q16 12 29 12h24q13 0 29 -12 l242 -219q12 -9 12 -25q0 -10 -8 -18l-19 -21q-12 -12 -20 -12q-10 0 -21 8l-227 170l-227 -170q-11 -8 -21 -8q-11 0 -20 12l-17 21q-10 13 -10 22zM358 565h463l-225 635z" />
<glyph unicode="&#xc3;" horiz-adv-x="1196" d="M15.5 11.5q-2.5 11.5 2.5 23.5l523 1351q7 21 26 21h74q17 0 25 -18l510 -1356q6 -17 1.5 -25t-22.5 -8h-96q-24 0 -32 5t-15 26l-154 428h-539l-159 -430q-7 -20 -14.5 -24.5t-28.5 -4.5h-88q-11 0 -13.5 11.5zM279 1651q0 13 28 32q106 66 185 66q44 0 121 -36t102 -36 q44 0 127 56q18 10 30 10q18 0 29 -19l17 -22q10 -17 10 -25q0 -14 -17 -28q-114 -88 -213 -88q-41 0 -108.5 35.5t-102.5 35.5q-51 0 -129 -49q-21 -12 -32 -12q-14 0 -23 20l-16 37q-8 20 -8 23zM358 565h463l-225 635z" />
<glyph unicode="&#xc4;" horiz-adv-x="1196" d="M15.5 11.5q-2.5 11.5 2.5 23.5l523 1351q7 21 26 21h74q17 0 25 -18l510 -1356q6 -17 1.5 -25t-22.5 -8h-96q-24 0 -32 5t-15 26l-154 428h-539l-159 -430q-7 -20 -14.5 -24.5t-28.5 -4.5h-88q-11 0 -13.5 11.5zM326 1667q0 42 29.5 67t68.5 25q38 0 66 -25.5t28 -66.5 q0 -40 -29 -65t-65 -25q-37 0 -67.5 25t-30.5 65zM358 565h463l-225 635zM678 1667q0 42 29.5 67t68.5 25q38 0 66 -25.5t28 -66.5q0 -40 -29 -65t-65 -25q-37 0 -67.5 25t-30.5 65z" />
<glyph unicode="&#xc5;" horiz-adv-x="1196" d="M15.5 11.5q-2.5 11.5 2.5 23.5l523 1351q7 21 26 21h74q17 0 25 -18l510 -1356q6 -17 1.5 -25t-22.5 -8h-96q-24 0 -32 5t-15 26l-154 428h-539l-159 -430q-7 -20 -14.5 -24.5t-28.5 -4.5h-88q-11 0 -13.5 11.5zM358 565h463l-225 635zM432 1700q0 66 50 115t116 49 q67 0 115.5 -49t48.5 -115t-48.5 -114t-115.5 -48q-66 0 -116 48t-50 114zM530 1700q0 -28 20 -47t48 -19t47 19t19 47t-19 46.5t-47 18.5t-48 -19t-20 -46z" />
<glyph unicode="&#xc6;" horiz-adv-x="1740" d="M12 16q0 7 6 19l883 1343q20 29 55 29h664q29 0 29 -25v-8l-7 -51q-1 -18 -11 -22.5t-36 -4.5h-555v-495h490q19 0 27 -7t8 -24v-49q0 -18 -7 -24.5t-26 -6.5h-492v-579h578q21 0 28 -5.5t7 -21.5v-55q0 -16 -7 -22.5t-28 -6.5h-682q-23 0 -30 7t-7 30v424h-461 l-282 -432q-14 -23 -22 -26q-7 -3 -21 -3h-84q-6 0 -11.5 4.5t-5.5 11.5zM500 567h399v613z" />
<glyph unicode="&#xc7;" horiz-adv-x="1185" d="M104 705q0 142 42 271t120 231t200 162.5t271 60.5q214 0 369 -95q22 -13 22 -26q0 -10 -6 -19l-26 -49q-8 -16 -21 -16q-9 0 -18 6q-139 86 -309 86q-103 0 -194 -43.5t-155 -120.5q-139 -171 -139 -438q0 -93 16 -180.5t53.5 -168.5t92.5 -141.5t138 -96.5t185 -36 q79 0 170.5 21.5t161.5 58.5q12 6 21 6q12 0 18 -16l19 -43q4 -8 4 -21q0 -14 -25 -26q-184 -93 -387 -90h-18l-4 -84h16q46 0 84 -12t66 -46.5t28 -87.5q0 -67 -47 -112.5t-141 -45.5q-58 0 -125 25q-29 12 -29 25q0 6 2 10l8 24q6 17 17 17q2 0 18 -4q58 -21 109 -21 q35 0 62 18.5t30 53.5v8q0 74 -109 74h-32q-29 0 -40.5 12t-11.5 35q0 19 2 29l9 90q-128 19 -228.5 83.5t-162.5 161.5t-94 216.5t-32 253.5z" />
<glyph unicode="&#xc8;" horiz-adv-x="1001" d="M158 37v1335q0 20 7.5 27.5t27.5 7.5h686q19 0 24.5 -7t3.5 -26l-6 -51q-1 -18 -11 -22.5t-36 -4.5h-553v-495h487q19 0 27 -7t8 -24v-49q0 -19 -6.5 -25t-25.5 -6h-490v-579h576q21 0 28.5 -6t7.5 -21v-55q0 -16 -6.5 -22.5t-27.5 -6.5h-684q-23 0 -30 7t-7 30z M297 1718q0 11 6 23l35 55q13 19 27 19q12 0 24 -9l301 -184q15 -9 15 -23q0 -4 -7 -18l-18 -29q-8 -14 -25 -14q-4 0 -16 4l-324 152q-18 9 -18 24z" />
<glyph unicode="&#xc9;" horiz-adv-x="1001" d="M158 37v1335q0 20 7.5 27.5t27.5 7.5h686q19 0 24.5 -7t3.5 -26l-6 -51q-1 -18 -11 -22.5t-36 -4.5h-553v-495h487q19 0 27 -7t8 -24v-49q0 -19 -6.5 -25t-25.5 -6h-490v-579h576q21 0 28.5 -6t7.5 -21v-55q0 -16 -6.5 -22.5t-27.5 -6.5h-684q-23 0 -30 7t-7 30z M338 1602q0 14 14 22l301 184q12 9 25 9q14 0 27 -19l34 -55q6 -12 6 -23q0 -15 -18 -24l-324 -152q-12 -4 -16 -4q-17 0 -25 14l-18 29q-6 12 -6 19z" />
<glyph unicode="&#xca;" horiz-adv-x="1001" d="M158 37v1335q0 20 7.5 27.5t27.5 7.5h686q19 0 24.5 -7t3.5 -26l-6 -51q-1 -18 -11 -22.5t-36 -4.5h-553v-495h487q19 0 27 -7t8 -24v-49q0 -19 -6.5 -25t-25.5 -6h-490v-579h576q21 0 28.5 -6t7.5 -21v-55q0 -16 -6.5 -22.5t-27.5 -6.5h-684q-23 0 -30 7t-7 30z M244 1587q0 9 12 21l242 219q16 12 28 12h25q13 0 29 -12l241 -219q13 -10 13 -25q0 -9 -9 -18l-18 -21q-12 -12 -21 -12t-20 8l-227 170l-228 -170q-11 -8 -20 -8q-12 0 -21 12l-16 21q-10 13 -10 22z" />
<glyph unicode="&#xcb;" horiz-adv-x="1001" d="M158 37v1335q0 20 7.5 27.5t27.5 7.5h686q19 0 24.5 -7t3.5 -26l-6 -51q-1 -18 -11 -22.5t-36 -4.5h-553v-495h487q19 0 27 -7t8 -24v-49q0 -19 -6.5 -25t-25.5 -6h-490v-579h576q21 0 28.5 -6t7.5 -21v-55q0 -16 -6.5 -22.5t-27.5 -6.5h-684q-23 0 -30 7t-7 30z M268 1665q0 42 30 67t69 25q38 0 66 -25.5t28 -66.5q0 -40 -29 -65t-65 -25q-37 0 -68 25t-31 65zM621 1665q0 42 29.5 67t68.5 25q38 0 66 -25.5t28 -66.5q0 -40 -29 -65t-65 -25q-37 0 -67.5 25t-30.5 65z" />
<glyph unicode="&#xcc;" horiz-adv-x="714" d="M123 1329v53q0 15 4.5 20t17.5 5h408q18 0 23.5 -5t5.5 -18v-51q0 -11 -0.5 -16t-5 -7.5t-8 -2.5h-15.5h-131v-1205h131q17 0 23 -5t6 -17v-51q0 -18 -4 -23.5t-19 -5.5h-405q-15 0 -20 5t-5 20v57q0 12 4.5 16t20.5 4h131v1205h-138q-15 0 -19.5 3.5t-4.5 18.5z M150 1712q0 11 6 23l34 55q12 18 27 18q14 0 25 -8l301 -184q14 -8 14 -23q0 -6 -6 -18l-19 -29q-8 -14 -24 -14q-4 0 -16 4l-324 152q-18 9 -18 24z" />
<glyph unicode="&#xcd;" horiz-adv-x="714" d="M123 1329v53q0 15 4.5 20t17.5 5h408q18 0 23.5 -5t5.5 -18v-51q0 -11 -0.5 -16t-5 -7.5t-8 -2.5h-15.5h-131v-1205h131q17 0 23 -5t6 -17v-51q0 -18 -4 -23.5t-19 -5.5h-405q-15 0 -20 5t-5 20v57q0 12 4.5 16t20.5 4h131v1205h-138q-15 0 -19.5 3.5t-4.5 18.5z M168 1602q0 14 14 22l301 184q12 9 25 9q14 0 27 -19l34 -55q6 -12 6 -23q0 -15 -18 -24l-324 -152q-12 -4 -16 -4q-16 0 -24 14l-19 29q-6 12 -6 19z" />
<glyph unicode="&#xce;" horiz-adv-x="714" d="M61 1587q0 8 13 21l241 219q16 12 29 12h25q12 0 28 -12l242 -219q12 -9 12 -25q0 -10 -8 -18l-18 -21q-12 -12 -21 -12t-20 8l-228 170l-227 -170q-11 -8 -20 -8q-12 0 -21 12l-16 21q-11 15 -11 22zM123 1329v53q0 15 4.5 20t17.5 5h408q18 0 23.5 -5t5.5 -18v-51 q0 -11 -0.5 -16t-5 -7.5t-8 -2.5h-15.5h-131v-1205h131q17 0 23 -5t6 -17v-51q0 -18 -4 -23.5t-19 -5.5h-405q-15 0 -20 5t-5 20v57q0 12 4.5 16t20.5 4h131v1205h-138q-15 0 -19.5 3.5t-4.5 18.5z" />
<glyph unicode="&#xcf;" horiz-adv-x="714" d="M82 1659q0 42 29.5 67t68.5 25q38 0 66 -25.5t28 -66.5q0 -40 -29 -65t-65 -25q-37 0 -67.5 25t-30.5 65zM123 1329v53q0 15 4.5 20t17.5 5h408q18 0 23.5 -5t5.5 -18v-51q0 -11 -0.5 -16t-5 -7.5t-8 -2.5h-15.5h-131v-1205h131q17 0 23 -5t6 -17v-51q0 -18 -4 -23.5 t-19 -5.5h-405q-15 0 -20 5t-5 20v57q0 12 4.5 16t20.5 4h131v1205h-138q-15 0 -19.5 3.5t-4.5 18.5zM434 1659q0 42 29.5 67t68.5 25t67 -25.5t28 -66.5q0 -40 -29 -65t-66 -25t-67.5 25t-30.5 65z" />
<glyph unicode="&#xd0;" horiz-adv-x="1341" d="M0 655v54q0 18 7 24t28 6h127v613q0 30 12.5 42.5t44.5 12.5h230q212 0 320 -20t200 -80q129 -84 200.5 -244t71.5 -369q0 -171 -52 -312.5t-151 -234.5q-157 -147 -501 -147h-328q-29 0 -38 9t-9 34v582h-121q-26 0 -33.5 6t-7.5 24zM305 111h182q169 0 269 23.5 t170 94.5q161 161 161 467q0 158 -46.5 289.5t-135.5 204.5q-128 106 -385 106h-215v-557h230q27 0 33.5 -6t6.5 -28v-41q0 -24 -6.5 -31.5t-27.5 -7.5h-236v-514z" />
<glyph unicode="&#xd1;" horiz-adv-x="1376" d="M158 37v1333q0 37 32 37h52q29 0 45 -27l800 -1138h5v1128q0 22 6.5 29.5t23.5 7.5h64q18 0 25.5 -7t7.5 -28v-1335q0 -21 -6 -29t-21 -8h-66q-27 0 -53 37l-782 1110h-4v-1110q0 -37 -33 -37h-64q-32 0 -32 37zM371 1657q0 14 28 33q104 65 185 65q44 0 121 -36t102 -36 q44 0 127 56q18 10 31 10q18 0 28 -18l17 -23q10 -17 10 -25q0 -15 -16 -28q-114 -88 -213 -88q-41 0 -108.5 35.5t-102.5 35.5q-51 0 -129 -49q-21 -12 -33 -12q-14 0 -23 20l-16 37q-8 20 -8 23z" />
<glyph unicode="&#xd2;" horiz-adv-x="1355" d="M117 698q0 164 43.5 302t121 232t185 146t233.5 52q266 0 415 -195.5t149 -521.5q0 -171 -45 -310.5t-124 -231t-185.5 -140.5t-229.5 -49q-263 0 -413 190t-150 526zM270 705q0 -281 110.5 -445t305.5 -164q188 0 306 169t118 442q0 282 -108 444t-306 162 q-126 0 -223.5 -79.5t-150 -217.5t-52.5 -311zM481 1720q0 11 6 23l35 55q13 19 27 19q12 0 24 -9l301 -184q15 -9 15 -22q0 -7 -6 -19l-19 -29q-8 -14 -24 -14q-5 0 -17 4l-323 152q-19 10 -19 24z" />
<glyph unicode="&#xd3;" horiz-adv-x="1355" d="M117 698q0 164 43.5 302t121 232t185 146t233.5 52q266 0 415 -195.5t149 -521.5q0 -171 -45 -310.5t-124 -231t-185.5 -140.5t-229.5 -49q-263 0 -413 190t-150 526zM270 705q0 -281 110.5 -445t305.5 -164q188 0 306 169t118 442q0 282 -108 444t-306 162 q-126 0 -223.5 -79.5t-150 -217.5t-52.5 -311zM553 1602q0 14 14 22l301 184q12 9 25 9q14 0 27 -19l34 -55q7 -14 7 -23q0 -14 -19 -24l-324 -152q-12 -4 -16 -4q-16 0 -24 14l-19 29q-6 12 -6 19z" />
<glyph unicode="&#xd4;" horiz-adv-x="1355" d="M117 698q0 164 43.5 302t121 232t185 146t233.5 52q266 0 415 -195.5t149 -521.5q0 -171 -45 -310.5t-124 -231t-185.5 -140.5t-229.5 -49q-263 0 -413 190t-150 526zM270 705q0 -281 110.5 -445t305.5 -164q188 0 306 169t118 442q0 282 -108 444t-306 162 q-126 0 -223.5 -79.5t-150 -217.5t-52.5 -311zM397 1593q0 8 13 21l241 219q16 12 29 12h25q12 0 28 -12l242 -219q12 -9 12 -25q0 -10 -8 -18l-18 -21q-12 -12 -21 -12t-20 8l-228 170l-227 -170q-11 -8 -21 -8q-11 0 -20 12l-16 21q-11 15 -11 22z" />
<glyph unicode="&#xd5;" horiz-adv-x="1355" d="M117 698q0 164 43.5 302t121 232t185 146t233.5 52q266 0 415 -195.5t149 -521.5q0 -171 -45 -310.5t-124 -231t-185.5 -140.5t-229.5 -49q-263 0 -413 190t-150 526zM270 705q0 -281 110.5 -445t305.5 -164q188 0 306 169t118 442q0 282 -108 444t-306 162 q-126 0 -223.5 -79.5t-150 -217.5t-52.5 -311zM367 1653q0 14 28 33q104 65 185 65q44 0 121 -36t102 -36q44 0 127 56q18 10 31 10q17 0 28 -19l17 -22q10 -17 10 -25q0 -14 -17 -28q-114 -88 -213 -88q-41 0 -108.5 35.5t-102.5 35.5q-51 0 -129 -49q-21 -12 -32 -12 q-14 0 -23 20l-16 37q-8 20 -8 23z" />
<glyph unicode="&#xd6;" horiz-adv-x="1355" d="M117 698q0 164 43.5 302t121 232t185 146t233.5 52q266 0 415 -195.5t149 -521.5q0 -171 -45 -310.5t-124 -231t-185.5 -140.5t-229.5 -49q-263 0 -413 190t-150 526zM270 705q0 -281 110.5 -445t305.5 -164q188 0 306 169t118 442q0 282 -108 444t-306 162 q-126 0 -223.5 -79.5t-150 -217.5t-52.5 -311zM420 1669q0 42 29.5 67t68.5 25q38 0 66 -25.5t28 -66.5q0 -40 -29 -65t-65 -25q-37 0 -67.5 25t-30.5 65zM772 1669q0 42 29.5 67t68.5 25t67 -25.5t28 -66.5q0 -40 -29 -65t-66 -25t-67.5 25t-30.5 65z" />
<glyph unicode="&#xd7;" horiz-adv-x="1024" d="M184 276q0 12 15 27l233 232l-229 229q-19 19 -19 31q0 7 15 22l28 31q13 16 29 16q11 0 25 -14l233 -234l227 228q20 20 29 20t25 -16l28 -29q11 -11 11 -24q0 -6 -2 -13t-4 -10l-1 -4l-233 -233l227 -228q21 -21 21 -28q0 -4 -13 -21l-36 -39q-12 -12 -23 -12 q-9 0 -25 16l-231 232l-229 -230q-18 -18 -31 -18q-9 0 -21 12l-36 37q-13 13 -13 20z" />
<glyph unicode="&#xd8;" horiz-adv-x="1363" d="M109 698q0 330 163 529.5t420 199.5q194 0 330 -108l84 135q22 37 35 37q4 0 12 -4l37 -23q24 -13 24 -24q0 -5 -4 -13l-112 -184q157 -195 157 -530q0 -171 -45 -310.5t-123.5 -231t-185 -140.5t-229.5 -49q-178 0 -305 86l-74 -121q-18 -33 -35 -33q-4 0 -9 3t-7 3 l-37 19q-23 11 -23 24q0 4 4 12l101 162q-178 190 -178 561zM262 705q0 -277 105 -441l585 942q-107 113 -264 113q-125 0 -223 -81t-150.5 -220.5t-52.5 -312.5zM436 180q98 -92 242 -92q124 0 220.5 78t150 219.5t53.5 321.5q0 244 -86 407z" />
<glyph unicode="&#xd9;" horiz-adv-x="1394" d="M158 627v743q0 37 32 37h78q33 0 33 -37v-727q0 -229 43 -336q39 -100 123.5 -152.5t232.5 -52.5q138 0 224.5 53.5t124.5 145.5q47 116 47 344v725q0 37 32 37h76q33 0 33 -37v-762q0 -302 -127 -461q-133 -165 -408 -165q-328 0 -450 190q-94 145 -94 455zM440 1704 q0 10 6 22l35 56q12 18 27 18q13 0 24 -8l302 -184q14 -8 14 -23q0 -6 -6 -18l-19 -29q-8 -14 -24 -14q-5 0 -17 4l-323 151q-19 9 -19 25z" />
<glyph unicode="&#xda;" horiz-adv-x="1394" d="M158 627v743q0 37 32 37h78q33 0 33 -37v-727q0 -229 43 -336q39 -100 123.5 -152.5t232.5 -52.5q138 0 224.5 53.5t124.5 145.5q47 116 47 344v725q0 37 32 37h76q33 0 33 -37v-762q0 -302 -127 -461q-133 -165 -408 -165q-328 0 -450 190q-94 145 -94 455zM588 1599 q0 15 14 23l301 184q12 9 25 9t26 -19l35 -55q6 -12 6 -23q0 -15 -18 -24l-324 -152q-12 -4 -16 -4q-17 0 -25 14l-18 29q-6 12 -6 18z" />
<glyph unicode="&#xdb;" horiz-adv-x="1394" d="M158 627v743q0 37 32 37h78q33 0 33 -37v-727q0 -229 43 -336q39 -100 123.5 -152.5t232.5 -52.5q138 0 224.5 53.5t124.5 145.5q47 116 47 344v725q0 37 32 37h76q33 0 33 -37v-762q0 -302 -127 -461q-133 -165 -408 -165q-328 0 -450 190q-94 145 -94 455zM401 1587 q0 8 13 21l241 219q16 12 29 12h25q12 0 28 -12l242 -219q12 -9 12 -25q0 -10 -8 -18l-18 -21q-12 -12 -21 -12t-20 8l-228 170l-227 -170q-11 -8 -20 -8q-12 0 -21 12l-16 21q-11 15 -11 22z" />
<glyph unicode="&#xdc;" horiz-adv-x="1394" d="M158 627v743q0 37 32 37h78q33 0 33 -37v-727q0 -229 43 -336q39 -100 123.5 -152.5t232.5 -52.5q138 0 224.5 53.5t124.5 145.5q47 116 47 344v725q0 37 32 37h76q33 0 33 -37v-762q0 -302 -127 -461q-133 -165 -408 -165q-328 0 -450 190q-94 145 -94 455zM424 1665 q0 42 29.5 67t68.5 25q38 0 66 -25.5t28 -66.5q0 -40 -29 -65t-65 -25q-37 0 -67.5 25t-30.5 65zM776 1665q0 42 29.5 67t68.5 25t67 -25.5t28 -66.5q0 -40 -29 -65t-66 -25t-67.5 25t-30.5 65z" />
<glyph unicode="&#xdd;" horiz-adv-x="1069" d="M33 1389q0 18 30 18h68q26 0 39.5 -7t22.5 -26l360 -712h2l344 706q12 27 21 33t36 6h50q28 0 28 -14q0 -8 -10 -31l-410 -821v-510q0 -19 -5.5 -25t-20.5 -6h-88q-15 0 -21 7t-6 26v506l-434 831q-6 12 -6 19zM330 1599q0 15 14 23l301 184q12 9 25 9t26 -19l35 -55 q6 -12 6 -23q0 -15 -18 -24l-324 -152q-12 -4 -16 -4q-17 0 -25 14l-18 29q-6 12 -6 18z" />
<glyph unicode="&#xde;" horiz-adv-x="1056" d="M119 37v1347q0 17 6.5 22.5t26.5 8.5l51 8h10q31 0 31 -37v-327q52 62 138.5 99.5t176.5 37.5q191 0 301.5 -113t110.5 -352q0 -211 -112 -338t-324 -127q-81 0 -159 33t-126 94v-360q0 -33 -39 -33h-59q-33 0 -33 37zM250 537q36 -71 114 -119.5t162 -48.5 q310 0 310 362q0 189 -79 276t-218 87q-81 0 -163.5 -43.5t-125.5 -108.5v-405z" />
<glyph unicode="&#xdf;" horiz-adv-x="1107" d="M137 -158v1196q0 209 105 319.5t290 110.5q112 0 200.5 -37.5t143 -118.5t54.5 -196q0 -108 -67.5 -202t-174.5 -121v-2q144 -17 240 -122.5t96 -254.5q0 -106 -38 -190.5t-101.5 -136t-142 -78.5t-164.5 -27h-15q-70 0 -86 2q-30 3 -37.5 8.5t-7.5 21.5v33q0 22 8 28.5 t31 6.5h4q13 0 45 -1t45 -1q85 0 149 28t101 76.5t54.5 107t17.5 126.5q0 76 -31.5 137t-82 96t-109 53.5t-117.5 18.5h-74q-28 0 -34.5 4.5t-6.5 22.5v45q0 19 5.5 23.5t25.5 4.5h33q48 0 99 19t96 53t73.5 89.5t28.5 121.5q0 262 -271 262q-117 0 -185.5 -81t-68.5 -230 v-1215q0 -37 -32 -37h-66q-33 0 -33 37z" />
<glyph unicode="&#xe0;" horiz-adv-x="1062" d="M76 477q0 123 34 224t93 168t137.5 103t167.5 36q78 0 154.5 -33t125.5 -96l3 75q0 33 36 33h62q31 0 31 -37v-719q0 -96 8 -112q11 -25 43 -25h14q13 0 18 -4.5t5 -17.5v-52q0 -12 -5.5 -16t-19.5 -4h-78q-57 0 -85.5 41.5t-28.5 105.5v27q-31 -77 -124 -134.5 t-192 -57.5q-81 0 -148 27t-113 74t-77.5 110.5t-46 134.5t-14.5 149zM211 485q0 -186 79 -289.5t195 -103.5q106 0 188 73t115 175v393q-39 81 -113.5 126.5t-158.5 45.5q-135 0 -220 -113.5t-85 -306.5zM293 1333q0 11 6 23l35 55q13 19 26 19t25 -9l301 -184 q14 -8 14 -23q0 -6 -6 -18l-18 -29q-8 -14 -25 -14q-4 0 -16 4l-324 152q-18 9 -18 24z" />
<glyph unicode="&#xe1;" horiz-adv-x="1062" d="M76 477q0 123 34 224t93 168t137.5 103t167.5 36q78 0 154.5 -33t125.5 -96l3 75q0 33 36 33h62q31 0 31 -37v-719q0 -96 8 -112q11 -25 43 -25h14q13 0 18 -4.5t5 -17.5v-52q0 -12 -5.5 -16t-19.5 -4h-78q-57 0 -85.5 41.5t-28.5 105.5v27q-31 -77 -124 -134.5 t-192 -57.5q-81 0 -148 27t-113 74t-77.5 110.5t-46 134.5t-14.5 149zM211 485q0 -186 79 -289.5t195 -103.5q106 0 188 73t115 175v393q-39 81 -113.5 126.5t-158.5 45.5q-135 0 -220 -113.5t-85 -306.5zM319 1214q0 14 15 23l301 184q12 9 24 9q14 0 27 -19l35 -55 q6 -12 6 -23q0 -15 -18 -24l-324 -152q-12 -4 -16 -4q-17 0 -25 14l-18 29q-7 14 -7 18z" />
<glyph unicode="&#xe2;" horiz-adv-x="1062" d="M76 477q0 123 34 224t93 168t137.5 103t167.5 36q78 0 154.5 -33t125.5 -96l3 75q0 33 36 33h62q31 0 31 -37v-719q0 -96 8 -112q11 -25 43 -25h14q13 0 18 -4.5t5 -17.5v-52q0 -12 -5.5 -16t-19.5 -4h-78q-57 0 -85.5 41.5t-28.5 105.5v27q-31 -77 -124 -134.5 t-192 -57.5q-81 0 -148 27t-113 74t-77.5 110.5t-46 134.5t-14.5 149zM211 485q0 -186 79 -289.5t195 -103.5q106 0 188 73t115 175v393q-39 81 -113.5 126.5t-158.5 45.5q-135 0 -220 -113.5t-85 -306.5zM215 1200q0 9 12 21l242 219q16 12 29 12h24q13 0 29 -12l242 -219 q12 -9 12 -25q0 -10 -8 -18l-19 -21q-12 -12 -20 -12q-10 0 -21 8l-227 170l-227 -170q-11 -8 -21 -8q-11 0 -20 12l-17 21q-10 13 -10 22z" />
<glyph unicode="&#xe3;" horiz-adv-x="1062" d="M76 477q0 123 34 224t93 168t137.5 103t167.5 36q78 0 154.5 -33t125.5 -96l3 75q0 33 36 33h62q31 0 31 -37v-719q0 -96 8 -112q11 -25 43 -25h14q13 0 18 -4.5t5 -17.5v-52q0 -12 -5.5 -16t-19.5 -4h-78q-57 0 -85.5 41.5t-28.5 105.5v27q-31 -77 -124 -134.5 t-192 -57.5q-81 0 -148 27t-113 74t-77.5 110.5t-46 134.5t-14.5 149zM207 1282q0 14 29 33q104 65 184 65q44 0 121 -35.5t102 -35.5q45 0 127 55q18 10 31 10q18 0 28 -18l17 -23q10 -17 10 -24q0 -16 -16 -29q-114 -88 -213 -88q-41 0 -108.5 36t-102.5 36q-23 0 -47 -8 t-39 -16.5t-43 -25.5q-21 -12 -33 -12q-14 0 -23 21l-16 37q-8 20 -8 22zM211 485q0 -186 79 -289.5t195 -103.5q106 0 188 73t115 175v393q-39 81 -113.5 126.5t-158.5 45.5q-135 0 -220 -113.5t-85 -306.5z" />
<glyph unicode="&#xe4;" horiz-adv-x="1062" d="M76 477q0 123 34 224t93 168t137.5 103t167.5 36q78 0 154.5 -33t125.5 -96l3 75q0 33 36 33h62q31 0 31 -37v-719q0 -96 8 -112q11 -25 43 -25h14q13 0 18 -4.5t5 -17.5v-52q0 -12 -5.5 -16t-19.5 -4h-78q-57 0 -85.5 41.5t-28.5 105.5v27q-31 -77 -124 -134.5 t-192 -57.5q-81 0 -148 27t-113 74t-77.5 110.5t-46 134.5t-14.5 149zM211 485q0 -186 79 -289.5t195 -103.5q106 0 188 73t115 175v393q-39 81 -113.5 126.5t-158.5 45.5q-135 0 -220 -113.5t-85 -306.5zM258 1290q0 42 29.5 67t68.5 25t67 -25.5t28 -66.5q0 -40 -29 -65 t-66 -25t-67.5 25t-30.5 65zM610 1290q0 42 30 67t69 25q38 0 66 -25.5t28 -66.5q0 -40 -29 -65t-65 -25q-37 0 -68 25t-31 65z" />
<glyph unicode="&#xe5;" horiz-adv-x="1062" d="M76 477q0 123 34 224t93 168t137.5 103t167.5 36q78 0 154.5 -33t125.5 -96l3 75q0 33 36 33h62q31 0 31 -37v-719q0 -96 8 -112q11 -25 43 -25h14q13 0 18 -4.5t5 -17.5v-52q0 -12 -5.5 -16t-19.5 -4h-78q-57 0 -85.5 41.5t-28.5 105.5v27q-31 -77 -124 -134.5 t-192 -57.5q-81 0 -148 27t-113 74t-77.5 110.5t-46 134.5t-14.5 149zM211 485q0 -186 79 -289.5t195 -103.5q106 0 188 73t115 175v393q-39 81 -113.5 126.5t-158.5 45.5q-135 0 -220 -113.5t-85 -306.5zM367 1266q0 66 49.5 115t115.5 49q67 0 115.5 -49t48.5 -115 t-48.5 -114t-115.5 -48q-66 0 -115.5 48t-49.5 114zM465 1266q0 -28 19.5 -47t47.5 -19t47 19t19 47t-19 46.5t-47 18.5t-47.5 -18.5t-19.5 -46.5z" />
<glyph unicode="&#xe6;" horiz-adv-x="1552" d="M72 264q0 122 90 205q141 131 444 131h60v70q0 123 -48 183t-161 60q-131 0 -275 -82q-9 -6 -16 -6q-8 0 -14 13l-19 41q-4 8 -4 12q0 12 16 22q79 47 165 71t157 24q148 0 229 -72q45 -39 68 -90q120 162 336 162q177 0 279 -119.5t102 -304.5v-60q-1 -22 -14 -28.5 t-44 -6.5h-649q0 -83 21 -154t62 -126t108 -86t153 -31q66 0 138 13.5t118 33.5q12 4 15 4q16 0 20 -18l10 -47q2 -6 2 -17q0 -13 -20 -22q-58 -27 -141 -42t-154 -15q-154 0 -258 69q-40 25 -66 53q-30 36 -32 39q-52 -70 -150 -116.5t-227 -46.5q-124 0 -212.5 74.5 t-88.5 209.5zM209 268q0 -93 56.5 -140.5t135.5 -47.5q90 0 175 43.5t133 95.5q-50 117 -50 277v20h-53q-54 0 -104.5 -6t-105.5 -23t-95 -43.5t-66 -72t-26 -103.5zM778 582h570q2 14 2 41q0 124 -65.5 204t-188.5 80q-137 0 -220 -94t-98 -231z" />
<glyph unicode="&#xe7;" horiz-adv-x="864" d="M84 498q0 146 55.5 261t165 182t256.5 67q64 0 136 -17.5t120 -44.5q19 -10 19 -22q0 -2 -5 -17l-12 -37q-9 -22 -20 -22q-3 0 -15 4q-117 55 -225 55q-154 0 -247 -110t-93 -295q0 -67 11 -126.5t36 -114.5t63 -94.5t95 -63t129 -23.5q127 0 238 49q12 4 14 4 q16 0 20 -18l11 -37q2 -6 2 -17q0 -13 -21 -22q-117 -57 -262 -57l-4 -84h16q46 0 84 -12t66 -46.5t28 -87.5q0 -67 -47 -112.5t-141 -45.5q-58 0 -125 25q-29 12 -29 25q0 4 3 10l8 24q6 17 16 17q3 0 19 -4q58 -21 108 -21q35 0 62 18.5t30 53.5v8q0 74 -108 74h-33 q-29 0 -40 11.5t-11 35.5q0 19 2 29l8 88q-191 25 -287 161.5t-96 348.5z" />
<glyph unicode="&#xe8;" horiz-adv-x="997" d="M84 496q0 143 54.5 258.5t160.5 184.5t246 69q177 0 279 -119.5t102 -304.5v-39q0 -35 -10.5 -45.5t-47.5 -10.5h-649q0 -83 21 -154t62 -126t108 -86t153 -31q66 0 138 13.5t118 33.5q29 15 35 -14l10 -47q6 -29 -18 -39q-58 -27 -141 -42t-154 -15q-228 0 -347.5 139.5 t-119.5 374.5zM223 582h570q2 14 2 41q0 124 -65.5 204t-188.5 80q-137 0 -220 -94t-98 -231zM295 1331q0 11 6 23l35 55q12 18 26 18t25 -8l301 -184q14 -8 14 -23q0 -6 -6 -18l-18 -29q-8 -14 -25 -14q-4 0 -16 4l-324 152q-18 9 -18 24z" />
<glyph unicode="&#xe9;" horiz-adv-x="997" d="M84 496q0 143 54.5 258.5t160.5 184.5t246 69q177 0 279 -119.5t102 -304.5v-39q0 -35 -10.5 -45.5t-47.5 -10.5h-649q0 -83 21 -154t62 -126t108 -86t153 -31q66 0 138 13.5t118 33.5q29 15 35 -14l10 -47q6 -29 -18 -39q-58 -27 -141 -42t-154 -15q-228 0 -347.5 139.5 t-119.5 374.5zM223 582h570q2 14 2 41q0 124 -65.5 204t-188.5 80q-137 0 -220 -94t-98 -231zM295 1214q0 15 14 23l301 184q12 9 25 9q14 0 27 -19l34 -55q6 -12 6 -23q0 -15 -18 -24l-324 -152q-12 -4 -16 -4q-17 0 -25 14l-18 29q-6 12 -6 18z" />
<glyph unicode="&#xea;" horiz-adv-x="997" d="M84 496q0 143 54.5 258.5t160.5 184.5t246 69q177 0 279 -119.5t102 -304.5v-39q0 -35 -10.5 -45.5t-47.5 -10.5h-649q0 -83 21 -154t62 -126t108 -86t153 -31q66 0 138 13.5t118 33.5q29 15 35 -14l10 -47q6 -29 -18 -39q-58 -27 -141 -42t-154 -15q-228 0 -347.5 139.5 t-119.5 374.5zM223 582h570q2 14 2 41q0 124 -65.5 204t-188.5 80q-137 0 -220 -94t-98 -231zM236 1194q0 8 12 20l241 220q16 12 29 12h25q12 0 28 -12l242 -220q12 -9 12 -24q0 -11 -8 -19l-18 -20q-12 -12 -21 -12t-20 8l-228 170l-227 -170q-11 -8 -20 -8q-12 0 -21 12 l-16 20q-10 13 -10 23z" />
<glyph unicode="&#xeb;" horiz-adv-x="997" d="M84 496q0 143 54.5 258.5t160.5 184.5t246 69q177 0 279 -119.5t102 -304.5v-39q0 -35 -10.5 -45.5t-47.5 -10.5h-649q0 -83 21 -154t62 -126t108 -86t153 -31q66 0 138 13.5t118 33.5q29 15 35 -14l10 -47q6 -29 -18 -39q-58 -27 -141 -42t-154 -15q-228 0 -347.5 139.5 t-119.5 374.5zM223 582h570q2 14 2 41q0 124 -65.5 204t-188.5 80q-137 0 -220 -94t-98 -231zM250 1288q0 42 29.5 67t68.5 25q38 0 66 -25.5t28 -66.5q0 -40 -29 -65t-65 -25q-37 0 -67.5 25t-30.5 65zM602 1288q0 42 29.5 67t68.5 25t67 -25.5t28 -66.5q0 -40 -29 -65 t-66 -25t-67.5 25t-30.5 65z" />
<glyph unicode="&#xec;" horiz-adv-x="450" d="M23 1341q0 11 6 23l34 55q13 19 27 19t25 -8l301 -185q14 -8 14 -22q0 -7 -6 -19l-18 -28q-9 -15 -25 -15q-4 0 -16 4l-324 152q-18 9 -18 24zM158 37v913q0 37 32 37h66q33 0 33 -37v-913q0 -37 -33 -37h-66q-32 0 -32 37z" />
<glyph unicode="&#xed;" horiz-adv-x="450" d="M23 1214q0 15 14 23l301 184q12 9 24 9q14 0 27 -19l35 -55q6 -12 6 -23q0 -15 -18 -24l-324 -152q-12 -4 -16 -4q-17 0 -25 14l-18 29q-6 12 -6 18zM158 37v913q0 37 32 37h66q33 0 33 -37v-913q0 -37 -33 -37h-66q-32 0 -32 37z" />
<glyph unicode="&#xee;" horiz-adv-x="491" d="M-49 1196q0 9 12 21l242 219q16 12 28 12h25q13 0 29 -12l241 -219q13 -10 13 -25q0 -9 -9 -18l-18 -21q-12 -12 -20 -12q-10 0 -21 8l-227 170l-228 -170q-11 -8 -20 -8q-12 0 -21 12l-16 21q-10 13 -10 22zM178 37v913q0 37 33 37h65q33 0 33 -37v-913q0 -37 -33 -37 h-65q-33 0 -33 37z" />
<glyph unicode="&#xef;" horiz-adv-x="475" d="M-35 1290q0 42 29.5 67t68.5 25t67 -25.5t28 -66.5q0 -40 -29 -65t-66 -25t-67.5 25t-30.5 65zM170 37v913q0 37 33 37h65q33 0 33 -37v-913q0 -37 -33 -37h-65q-33 0 -33 37zM317 1290q0 42 30 67t69 25q38 0 66 -25.5t28 -66.5q0 -40 -29 -65t-65 -25q-37 0 -68 25 t-31 65z" />
<glyph unicode="&#xf0;" horiz-adv-x="1067" d="M84 496q0 108 30 200.5t86.5 162t143.5 109.5t195 40q82 0 159 -23q-36 98 -114 173.5t-168 117.5l-76 -158q-8 -14 -14 -14q-7 0 -19 6l-37 18q-14 8 -14 17q0 7 6 16l78 150q-99 33 -178 45q-25 3 -25 22v8l6 35q3 19 9.5 23t23.5 4h17q87 -8 204 -37l70 135 q10 17 16 17q5 0 15 -7l37 -20q14 -8 14 -16q0 -9 -4 -15l-66 -129q97 -45 181 -122t143 -168t101.5 -193.5t62.5 -202t20 -190.5q0 -105 -29 -197.5t-85 -164.5t-145.5 -114t-201.5 -42t-198 39.5t-138.5 109.5t-79 162t-26.5 203zM219 500q0 -64 9 -121.5t31 -113t56 -96 t89 -65t124 -24.5t124.5 23.5t92 62.5t60.5 92.5t34.5 111.5t10.5 122t-9.5 121.5t-33 112t-58 94t-88.5 63.5t-122 24q-71 0 -127 -24.5t-91.5 -64t-59 -93.5t-33 -109.5t-9.5 -115.5z" />
<glyph unicode="&#xf1;" horiz-adv-x="1071" d="M137 37v913q0 37 33 37h63q33 0 33 -37l2 -69q69 61 160 94t182 33q172 0 248 -96t76 -273v-602q0 -37 -33 -37h-65q-33 0 -33 37v584q0 66 -9.5 114t-33.5 88.5t-70.5 61t-114.5 20.5q-75 0 -161 -37.5t-146 -93.5v-737q0 -37 -32 -37h-66q-33 0 -33 37zM211 1288 q0 14 29 33q104 65 184 65q44 0 121 -35.5t102 -35.5q45 0 127 55q17 10 31 10q19 0 29 -18l16 -23q10 -17 10 -24q0 -16 -16 -29q-114 -88 -213 -88q-41 0 -108.5 36t-102.5 36q-51 0 -129 -49q-23 -13 -33 -13q-13 0 -22 21l-17 37q-8 20 -8 22z" />
<glyph unicode="&#xf2;" horiz-adv-x="1069" d="M84 496q0 108 30 200.5t86.5 162t143.5 109.5t195 40q221 0 333.5 -140t112.5 -372q0 -146 -52 -261t-157.5 -184t-249.5 -69q-112 0 -198 39.5t-138.5 109.5t-79 162t-26.5 203zM219 500q0 -64 9 -121.5t31 -113t56 -96t89 -65t124 -24.5t124.5 23.5t92 62.5t60.5 92.5 t34.5 111.5t10.5 122t-9.5 121.5t-33 112t-58 94t-88.5 63.5t-122 24q-71 0 -127 -24.5t-91.5 -64t-59 -93.5t-33 -109.5t-9.5 -115.5zM330 1333q0 11 6 23l35 55q13 19 26 19t25 -9l301 -184q14 -8 14 -23q0 -6 -6 -18l-18 -29q-8 -14 -25 -14q-4 0 -16 4l-324 152 q-18 9 -18 24z" />
<glyph unicode="&#xf3;" horiz-adv-x="1069" d="M84 496q0 108 30 200.5t86.5 162t143.5 109.5t195 40q221 0 333.5 -140t112.5 -372q0 -146 -52 -261t-157.5 -184t-249.5 -69q-112 0 -198 39.5t-138.5 109.5t-79 162t-26.5 203zM219 500q0 -64 9 -121.5t31 -113t56 -96t89 -65t124 -24.5t124.5 23.5t92 62.5t60.5 92.5 t34.5 111.5t10.5 122t-9.5 121.5t-33 112t-58 94t-88.5 63.5t-122 24q-71 0 -127 -24.5t-91.5 -64t-59 -93.5t-33 -109.5t-9.5 -115.5zM330 1214q0 15 14 23l301 184q12 9 25 9t26 -19l35 -55q6 -12 6 -23q0 -15 -18 -24l-324 -152q-12 -4 -16 -4q-17 0 -25 14l-18 29 q-6 12 -6 18z" />
<glyph unicode="&#xf4;" horiz-adv-x="1069" d="M84 496q0 108 30 200.5t86.5 162t143.5 109.5t195 40q221 0 333.5 -140t112.5 -372q0 -146 -52 -261t-157.5 -184t-249.5 -69q-112 0 -198 39.5t-138.5 109.5t-79 162t-26.5 203zM219 500q0 -64 9 -121.5t31 -113t56 -96t89 -65t124 -24.5t124.5 23.5t92 62.5t60.5 92.5 t34.5 111.5t10.5 122t-9.5 121.5t-33 112t-58 94t-88.5 63.5t-122 24q-71 0 -127 -24.5t-91.5 -64t-59 -93.5t-33 -109.5t-9.5 -115.5zM240 1198q0 9 12 21l242 219q16 12 28 12h25q12 0 28 -12l242 -219q12 -9 12 -25q0 -10 -8 -18l-18 -21q-12 -12 -21 -12t-20 8l-227 170 l-228 -170q-11 -8 -20 -8q-12 0 -21 12l-16 21q-10 13 -10 22z" />
<glyph unicode="&#xf5;" horiz-adv-x="1069" d="M84 496q0 108 30 200.5t86.5 162t143.5 109.5t195 40q221 0 333.5 -140t112.5 -372q0 -146 -52 -261t-157.5 -184t-249.5 -69q-112 0 -198 39.5t-138.5 109.5t-79 162t-26.5 203zM209 1278q0 14 29 33q104 65 184 65q44 0 121 -35.5t102 -35.5q45 0 127 55q18 10 31 10 q18 0 28 -18l17 -23q10 -17 10 -24q0 -16 -16 -29q-114 -88 -213 -88q-41 0 -108.5 36t-102.5 36q-23 0 -47 -8t-39 -16.5t-43 -25.5q-21 -12 -33 -12q-14 0 -23 21l-16 36q-8 20 -8 23zM219 500q0 -64 9 -121.5t31 -113t56 -96t89 -65t124 -24.5t124.5 23.5t92 62.5 t60.5 92.5t34.5 111.5t10.5 122t-9.5 121.5t-33 112t-58 94t-88.5 63.5t-122 24q-71 0 -127 -24.5t-91.5 -64t-59 -93.5t-33 -109.5t-9.5 -115.5z" />
<glyph unicode="&#xf6;" horiz-adv-x="1069" d="M84 496q0 108 30 200.5t86.5 162t143.5 109.5t195 40q221 0 333.5 -140t112.5 -372q0 -146 -52 -261t-157.5 -184t-249.5 -69q-112 0 -198 39.5t-138.5 109.5t-79 162t-26.5 203zM219 500q0 -64 9 -121.5t31 -113t56 -96t89 -65t124 -24.5t124.5 23.5t92 62.5t60.5 92.5 t34.5 111.5t10.5 122t-9.5 121.5t-33 112t-58 94t-88.5 63.5t-122 24q-71 0 -127 -24.5t-91.5 -64t-59 -93.5t-33 -109.5t-9.5 -115.5zM262 1290q0 42 29.5 67t68.5 25t67 -25.5t28 -66.5q0 -40 -29 -65t-66 -25t-67.5 25t-30.5 65zM614 1290q0 42 30 67t69 25 q38 0 66 -25.5t28 -66.5q0 -40 -29 -65t-65 -25q-37 0 -68 25t-31 65z" />
<glyph unicode="&#xf7;" horiz-adv-x="1024" d="M92 508v53q0 19 7 25t28 6h756q27 0 34 -6.5t7 -28.5v-41q0 -24 -6.5 -31.5t-28.5 -7.5h-756q-25 0 -33 6.5t-8 24.5zM399 182q0 47 32.5 75t76.5 28q42 0 73 -29t31 -74t-31.5 -72.5t-72.5 -27.5t-75 27.5t-34 72.5zM399 897q0 47 32.5 74.5t76.5 27.5q42 0 73 -28.5 t31 -73.5t-31.5 -73.5t-72.5 -28.5t-75 28.5t-34 73.5z" />
<glyph unicode="&#xf8;" horiz-adv-x="1077" d="M88 498q0 106 30.5 198.5t87 162t144 109.5t195.5 40q143 0 237 -58l35 54q24 36 37 36q4 0 12 -4l37 -20q25 -14 25 -25q0 -4 -4 -12l-60 -96q125 -137 125 -385q0 -107 -30.5 -200t-87 -164t-145 -111.5t-196.5 -40.5q-115 0 -202 41l-25 -41q-18 -33 -35 -33 q-3 0 -5.5 1t-5.5 2.5l-5 2.5l-37 18q-22 11 -22 23q0 4 4 12l45 72q-76 69 -115 178t-39 240zM223 502q0 -200 84 -316l414 664q-70 61 -178 61q-70 0 -126.5 -24.5t-92 -65t-59 -95t-33 -110t-9.5 -114.5zM385 115q64 -39 147 -39q69 0 124.5 24t92 64.5t60.5 95t34.5 113 t10.5 121.5q0 160 -63 272z" />
<glyph unicode="&#xf9;" horiz-adv-x="1050" d="M137 354v596q0 37 33 37h66q32 0 32 -37v-577q0 -158 60 -226q52 -59 166 -59q70 0 152 40.5t136 94.5v727q0 37 33 37h66q32 0 32 -37v-913q0 -37 -32 -37h-64q-33 0 -33 37l-2 72q-142 -127 -321 -127q-148 0 -232 81q-92 92 -92 291zM322 1333q0 11 6 23l34 55 q13 19 27 19q13 0 25 -9l301 -184q14 -8 14 -23q0 -6 -6 -18l-18 -29q-8 -14 -25 -14q-4 0 -16 4l-324 152q-18 9 -18 24z" />
<glyph unicode="&#xfa;" horiz-adv-x="1050" d="M137 354v596q0 37 33 37h66q32 0 32 -37v-577q0 -158 60 -226q52 -59 166 -59q70 0 152 40.5t136 94.5v727q0 37 33 37h66q32 0 32 -37v-913q0 -37 -32 -37h-64q-33 0 -33 37l-2 72q-142 -127 -321 -127q-148 0 -232 81q-92 92 -92 291zM322 1214q0 15 14 23l301 184 q12 9 25 9t26 -19l35 -55q6 -12 6 -23q0 -15 -18 -24l-324 -152q-12 -4 -16 -4q-17 0 -25 14l-18 29q-6 12 -6 18z" />
<glyph unicode="&#xfb;" horiz-adv-x="1050" d="M137 354v596q0 37 33 37h66q32 0 32 -37v-577q0 -158 60 -226q52 -59 166 -59q70 0 152 40.5t136 94.5v727q0 37 33 37h66q32 0 32 -37v-913q0 -37 -32 -37h-64q-33 0 -33 37l-2 72q-142 -127 -321 -127q-148 0 -232 81q-92 92 -92 291zM229 1198q0 8 13 21l241 219 q16 12 29 12h25q12 0 28 -12l242 -219q12 -9 12 -25q0 -10 -8 -18l-18 -21q-12 -12 -21 -12t-20 8l-228 170l-227 -170q-11 -8 -21 -8q-11 0 -20 12l-16 21q-11 15 -11 22z" />
<glyph unicode="&#xfc;" horiz-adv-x="1050" d="M137 354v596q0 37 33 37h66q32 0 32 -37v-577q0 -158 60 -226q52 -59 166 -59q70 0 152 40.5t136 94.5v727q0 37 33 37h66q32 0 32 -37v-913q0 -37 -32 -37h-64q-33 0 -33 37l-2 72q-142 -127 -321 -127q-148 0 -232 81q-92 92 -92 291zM252 1288q0 42 29.5 67t68.5 25 q38 0 66 -25.5t28 -66.5q0 -40 -29 -65t-65 -25q-37 0 -67.5 25t-30.5 65zM604 1288q0 42 29.5 67t68.5 25t67 -25.5t28 -66.5q0 -40 -29 -65t-66 -25t-67.5 25t-30.5 65z" />
<glyph unicode="&#xfd;" horiz-adv-x="952" d="M37 -414l10 66q2 22 23 22h6q60 -6 76 -6q160 0 223 158l63 156l-362 976q-4 9 0 19t16 10h96q26 0 33 -22l289 -820l285 820q8 22 32 22h80q25 0 25 -16q0 -5 -4 -17l-400 -1077q-68 -183 -152.5 -255.5t-236.5 -72.5q-21 0 -82 9q-20 3 -20 22v6zM272 1214q0 14 15 23 l301 184q12 9 24 9q14 0 27 -19l35 -55q6 -12 6 -23q0 -15 -18 -24l-324 -152q-12 -4 -16 -4q-17 0 -25 14l-18 29q-7 14 -7 18z" />
<glyph unicode="&#xfe;" horiz-adv-x="1056" d="M119 -403v1810q0 17 6.5 22.5t26.5 8.5l51 8h10q31 0 31 -37v-539q52 63 138.5 100.5t176.5 37.5q187 0 301.5 -131t114.5 -377q0 -105 -29 -197.5t-83 -164.5t-139.5 -114t-191.5 -42q-81 0 -157.5 33t-124.5 94v-517q0 -32 -39 -32h-59q-33 0 -33 37zM250 252 q36 -72 113 -120t161 -48q151 0 233.5 113.5t82.5 302.5q0 201 -82 303t-219 102q-82 0 -164 -43t-125 -108v-502z" />
<glyph unicode="&#xff;" horiz-adv-x="952" d="M37 -414l10 66q2 22 23 22h6q60 -6 76 -6q160 0 223 158l63 156l-362 976q-4 9 0 19t16 10h96q26 0 33 -22l289 -820l285 820q8 22 32 22h80q25 0 25 -16q0 -5 -4 -17l-400 -1077q-68 -183 -152.5 -255.5t-236.5 -72.5q-21 0 -82 9q-20 3 -20 22v6zM203 1290 q0 42 29.5 67t68.5 25q38 0 66 -25.5t28 -66.5q0 -40 -29 -65t-65 -25q-37 0 -67.5 25t-30.5 65zM555 1290q0 42 29.5 67t68.5 25t67 -25.5t28 -66.5q0 -40 -29 -65t-66 -25t-67.5 25t-30.5 65z" />
<glyph unicode="&#x152;" horiz-adv-x="1871" d="M109 698q0 221 75.5 388.5t207 255.5t300.5 88q226 0 334 -142v84q0 20 7.5 27.5t27.5 7.5h686q29 0 29 -25v-8l-7 -49q-1 -18 -11 -22.5t-36 -4.5h-555v-497h490q19 0 27 -7t8 -24v-49q0 -18 -7 -24.5t-26 -6.5h-492v-579h578q21 0 28 -5.5t7 -21.5v-55q0 -16 -6 -22.5 t-27 -6.5h-684q-23 0 -30 7t-7 30v86q-70 -68 -169.5 -104.5t-201.5 -36.5q-262 0 -404 187t-142 529zM262 705q0 -277 107.5 -443t300.5 -166q99 0 196.5 44t159.5 120v881q-45 74 -131 124t-207 50q-126 0 -223.5 -79t-150 -217.5t-52.5 -313.5z" />
<glyph unicode="&#x153;" horiz-adv-x="1761" d="M88 494q0 106 30.5 199t87 163.5t144 111t195.5 40.5q269 0 366 -232q58 108 158.5 170t235.5 62q176 0 278.5 -121t102.5 -305q0 -33 -3 -60q-1 -22 -14 -28.5t-43 -6.5h-647q0 -176 78 -292q38 -57 108 -89t154 -32q65 0 138 14t120 35q12 4 14 4q17 0 21 -18l10 -35 q2 -6 2 -17q0 -13 -20 -22q-57 -27 -139 -41t-154 -14q-103 0 -191.5 32.5t-142.5 89.5q-43 46 -74 109q-113 -231 -371 -231q-112 0 -198.5 40t-139.5 110.5t-79.5 162.5t-26.5 201zM223 498q0 -63 9 -121t32 -114t57.5 -97t89.5 -66.5t124 -25.5t124.5 24t91 63.5t59.5 94 t34 112.5t10 121q0 61 -9.5 119t-33 113.5t-58 97t-89 67t-121.5 25.5q-70 0 -126.5 -25t-92 -66t-59 -96t-33 -110.5t-9.5 -115.5zM983 580h567q2 14 2 38q0 124 -66 209.5t-188 85.5q-70 0 -127.5 -27.5t-96 -74.5t-61.5 -106t-30 -125z" />
<glyph unicode="&#x178;" horiz-adv-x="1069" d="M33 1389q0 18 30 18h68q26 0 39.5 -7t22.5 -26l360 -712h2l344 706q12 27 21 33t36 6h50q28 0 28 -14q0 -8 -10 -31l-410 -821v-510q0 -19 -5.5 -25t-20.5 -6h-88q-15 0 -21 7t-6 26v506l-434 831q-6 12 -6 19zM262 1665q0 42 29.5 67t68.5 25t67 -25.5t28 -66.5 q0 -40 -29 -65t-66 -25t-67.5 25t-30.5 65zM614 1665q0 42 30 67t69 25q38 0 66 -25.5t28 -66.5q0 -40 -29 -65t-65 -25q-37 0 -68 25t-31 65z" />
<glyph unicode="&#x2c6;" horiz-adv-x="634" d="M25 1178q0 8 12 20l242 219q17 13 28 13h25q11 0 28 -13l242 -219q12 -9 12 -24q0 -11 -8 -19l-18 -20q-13 -13 -21 -13q-9 0 -20 8l-228 170l-227 -170q-11 -8 -20 -8q-11 0 -21 13l-16 20q-10 13 -10 23z" />
<glyph unicode="&#x2dc;" horiz-adv-x="634" d="M-4 1331q0 14 29 33q106 66 184 66q44 0 121 -36t102 -36q45 0 127 55q17 10 31 10q18 0 28 -18l17 -23q10 -17 10 -24q0 -16 -16 -29q-114 -88 -213 -88q-41 0 -108.5 36t-102.5 36q-51 0 -129 -49q-23 -13 -33 -13q-14 0 -23 21l-16 37q-8 20 -8 22z" />
<glyph unicode="&#x2000;" horiz-adv-x="932" />
<glyph unicode="&#x2001;" horiz-adv-x="1864" />
<glyph unicode="&#x2002;" horiz-adv-x="932" />
<glyph unicode="&#x2003;" horiz-adv-x="1864" />
<glyph unicode="&#x2004;" horiz-adv-x="621" />
<glyph unicode="&#x2005;" horiz-adv-x="466" />
<glyph unicode="&#x2006;" horiz-adv-x="310" />
<glyph unicode="&#x2007;" horiz-adv-x="310" />
<glyph unicode="&#x2008;" horiz-adv-x="233" />
<glyph unicode="&#x2009;" horiz-adv-x="372" />
<glyph unicode="&#x200a;" horiz-adv-x="103" />
<glyph unicode="&#x2010;" horiz-adv-x="555" d="M92 508v53q0 19 7 25t28 6h295q27 0 34 -6.5t7 -28.5v-41q0 -24 -6.5 -31.5t-28.5 -7.5h-295q-25 0 -33 6.5t-8 24.5z" />
<glyph unicode="&#x2011;" horiz-adv-x="555" d="M92 508v53q0 19 7 25t28 6h295q27 0 34 -6.5t7 -28.5v-41q0 -24 -6.5 -31.5t-28.5 -7.5h-295q-25 0 -33 6.5t-8 24.5z" />
<glyph unicode="&#x2012;" horiz-adv-x="555" d="M92 508v53q0 19 7 25t28 6h295q27 0 34 -6.5t7 -28.5v-41q0 -24 -6.5 -31.5t-28.5 -7.5h-295q-25 0 -33 6.5t-8 24.5z" />
<glyph unicode="&#x2013;" horiz-adv-x="1024" d="M0 508v53q0 19 7 25t28 6h948q27 0 34 -6.5t7 -28.5v-41q0 -24 -6.5 -31.5t-28.5 -7.5h-948q-25 0 -33 6.5t-8 24.5z" />
<glyph unicode="&#x2014;" horiz-adv-x="2048" d="M0 508v53q0 19 7 25t28 6h1972q27 0 34 -6.5t7 -28.5v-41q0 -24 -6.5 -31.5t-28.5 -7.5h-1972q-25 0 -33 6.5t-8 24.5z" />
<glyph unicode="&#x2018;" horiz-adv-x="634" d="M193 1151q0 76 42 155t103 121q18 11 24 11q11 0 21 -13l10 -12q6 -6 6 -16q0 -7 -10 -17q-63 -63 -63 -127q0 -25 30.5 -63.5t30.5 -65.5q0 -40 -27 -66t-67 -26q-44 0 -72 36t-28 83z" />
<glyph unicode="&#x2019;" horiz-adv-x="634" d="M227 1073q0 6 11 17q63 63 63 127q0 25 -30.5 63.5t-30.5 65.5q0 40 27 66t67 26q44 0 72 -36t28 -83q0 -76 -42 -155.5t-103 -121.5q-17 -10 -25 -10q-11 0 -20 12l-11 13q-6 6 -6 16z" />
<glyph unicode="&#x201a;" horiz-adv-x="634" d="M227 -229q0 5 11 16q63 63 63 127q0 25 -30.5 63.5t-30.5 65.5q0 40 27 66t67 26q44 0 72 -36t28 -83q0 -76 -42 -155t-103 -121q-17 -10 -25 -10q-11 0 -20 12l-11 12q-6 6 -6 17z" />
<glyph unicode="&#x201c;" horiz-adv-x="655" d="M45 1151q0 76 42 155t103 121q18 11 25 11q11 0 21 -13l10 -12q6 -6 6 -16q0 -7 -10 -17q-64 -64 -64 -127q0 -25 31 -63.5t31 -65.5q0 -39 -27.5 -65.5t-67.5 -26.5q-44 0 -72 36t-28 83zM387 1151q0 76 42 155t103 121q18 11 25 11q11 0 21 -13l10 -12q6 -6 6 -16 q0 -7 -10 -17q-64 -64 -64 -127q0 -25 31 -63.5t31 -65.5q0 -39 -27.5 -65.5t-67.5 -26.5q-44 0 -72 36t-28 83z" />
<glyph unicode="&#x201d;" horiz-adv-x="655" d="M63 1073q0 6 11 17q63 63 63 127q0 25 -30.5 63.5t-30.5 65.5q0 40 27 66t67 26q44 0 72 -36t28 -83q0 -76 -42 -155.5t-103 -121.5q-17 -10 -25 -10q-11 0 -20 12l-10 13q-7 7 -7 16zM406 1073q0 7 10 17q63 63 63 127q0 25 -30.5 63.5t-30.5 65.5q0 40 27 66t67 26 q44 0 72 -36t28 -83q0 -76 -42 -155.5t-103 -121.5q-17 -10 -25 -10q-11 0 -20 12l-10 13q-6 6 -6 16z" />
<glyph unicode="&#x201e;" horiz-adv-x="655" d="M63 -229q0 5 11 16q63 63 63 127q0 25 -30.5 63.5t-30.5 65.5q0 40 27 66t67 26q44 0 72 -36t28 -83q0 -76 -42 -155t-103 -121q-17 -10 -25 -10q-11 0 -20 12l-10 12q-7 7 -7 17zM406 -229q0 6 10 16q63 63 63 127q0 25 -30.5 63.5t-30.5 65.5q0 40 27 66t67 26 q44 0 72 -36t28 -83q0 -76 -42 -155t-103 -121q-17 -10 -25 -10q-11 0 -20 12l-10 12q-6 6 -6 17z" />
<glyph unicode="&#x2022;" horiz-adv-x="1044" d="M174 545q0 133 101.5 228t242.5 95t241.5 -95t100.5 -228t-100.5 -227.5t-241.5 -94.5t-242.5 94.5t-101.5 227.5z" />
<glyph unicode="&#x2026;" horiz-adv-x="2048" d="M264 76q0 47 32.5 73.5t76.5 26.5q42 0 74 -27.5t32 -72.5t-32.5 -74t-73.5 -29t-75 29t-34 74zM913 76q0 47 32.5 73.5t76.5 26.5q42 0 73 -27.5t31 -72.5t-31.5 -74t-72.5 -29t-75 29t-34 74zM1561 76q0 47 32.5 73.5t77.5 26.5q42 0 73.5 -27.5t31.5 -72.5t-32 -74 t-73 -29t-75.5 29t-34.5 74z" />
<glyph unicode="&#x202f;" horiz-adv-x="372" />
<glyph unicode="&#x2039;" horiz-adv-x="595" d="M113 465q0 17 10 29l227 301q11 14 23 14q8 0 14 -4l41 -23q10 -3 10 -18q0 -4 -4 -12l-176 -285l174 -295q4 -8 4 -14q0 -13 -14 -21l-35 -20q-9 -6 -14 -6q-11 0 -23 18l-229 311q-8 10 -8 25z" />
<glyph unicode="&#x203a;" horiz-adv-x="595" d="M158 158q0 4 4 12l174 287l-172 293q-4 8 -4 14q0 12 14 20l33 21q9 6 14 6q11 0 23 -18l229 -312q10 -13 10 -24q0 -14 -12 -29l-227 -301q-11 -14 -23 -14q-8 0 -14 4l-39 22q-10 7 -10 19z" />
<glyph unicode="&#x205f;" horiz-adv-x="466" />
<glyph unicode="&#x20ac;" d="M-20 524v43q0 21 7.5 28t26.5 7h156q-4 66 -4 98h-135q-20 0 -25.5 5.5t-5.5 27.5v43q0 21 7.5 28t27.5 7h137q12 129 53 238.5t111 196t177.5 135.5t242.5 49q208 0 362 -97q21 -12 21 -26q0 -3 -4 -19l-19 -49q-5 -16 -20 -16q-10 0 -19 6q-142 88 -309 88 q-86 0 -157 -28t-119.5 -74.5t-84 -112.5t-54 -137.5t-25.5 -153.5h567q31 0 31 -23q0 -1 -1 -4.5t-1 -5.5l-11 -49q-3 -13 -3.5 -15.5t-4.5 -7.5t-8.5 -5.5t-15.5 -0.5h-557q0 -32 4 -98h528q31 0 31 -22q0 -1 -1 -5t-1 -6l-11 -49q-6 -23 -12 -26q-5 -2 -20 -2h-500 q77 -398 424 -398q79 0 170.5 21.5t161.5 58.5q12 6 20 6q13 0 19 -16l16 -43q4 -8 4 -21q0 -15 -22 -26q-182 -92 -390 -92q-126 0 -225.5 38t-166 108t-108 160t-61.5 204h-174q-20 0 -25 5t-5 27z" />
<glyph unicode="&#x2122;" horiz-adv-x="1163" d="M76 1356v37q0 14 12 14h387q14 0 14 -12v-2l-4 -35q-2 -15 -20 -15h-148v-481q0 -18 -16 -18h-43q-18 0 -18 18v481h-150q-14 0 -14 13zM500 860l8 531q0 16 14 16h47q16 0 21 -10l194 -453l183 451q6 12 16 12h49q15 0 15 -14l12 -531v-2q0 -16 -15 -16h-47 q-16 0 -16 18l-8 402l-160 -410q-3 -10 -14 -10h-33q-8 0 -14 12l-174 408l-5 -406q0 -14 -16 -14h-43q-14 0 -14 16z" />
<glyph unicode="&#xe000;" horiz-adv-x="983" d="M0 0v983h983v-983h-983z" />
</font>
</defs>
</svg>
